%TF.GenerationSoftware,KiCad,Pcbnew,9.0.2*%
%TF.CreationDate,2025-06-02T02:46:58+09:00*%
%TF.ProjectId,catch25-servo,63617463-6832-4352-9d73-6572766f2e6b,rev?*%
%TF.SameCoordinates,Original*%
%TF.FileFunction,Soldermask,Top*%
%TF.FilePolarity,Negative*%
%FSLAX46Y46*%
G04 Gerber Fmt 4.6, Leading zero omitted, Abs format (unit mm)*
G04 Created by KiCad (PCBNEW 9.0.2) date 2025-06-02 02:46:58*
%MOMM*%
%LPD*%
G01*
G04 APERTURE LIST*
G04 Aperture macros list*
%AMRoundRect*
0 Rectangle with rounded corners*
0 $1 Rounding radius*
0 $2 $3 $4 $5 $6 $7 $8 $9 X,Y pos of 4 corners*
0 Add a 4 corners polygon primitive as box body*
4,1,4,$2,$3,$4,$5,$6,$7,$8,$9,$2,$3,0*
0 Add four circle primitives for the rounded corners*
1,1,$1+$1,$2,$3*
1,1,$1+$1,$4,$5*
1,1,$1+$1,$6,$7*
1,1,$1+$1,$8,$9*
0 Add four rect primitives between the rounded corners*
20,1,$1+$1,$2,$3,$4,$5,0*
20,1,$1+$1,$4,$5,$6,$7,0*
20,1,$1+$1,$6,$7,$8,$9,0*
20,1,$1+$1,$8,$9,$2,$3,0*%
%AMFreePoly0*
4,1,9,3.862500,-0.866500,0.737500,-0.866500,0.737500,-0.450000,-0.737500,-0.450000,-0.737500,0.450000,0.737500,0.450000,0.737500,0.866500,3.862500,0.866500,3.862500,-0.866500,3.862500,-0.866500,$1*%
G04 Aperture macros list end*
%ADD10RoundRect,0.250000X0.600000X0.675000X-0.600000X0.675000X-0.600000X-0.675000X0.600000X-0.675000X0*%
%ADD11O,1.700000X1.850000*%
%ADD12RoundRect,0.102000X1.749750X0.571500X-1.749750X0.571500X-1.749750X-0.571500X1.749750X-0.571500X0*%
%ADD13RoundRect,0.102000X2.095500X0.952500X-2.095500X0.952500X-2.095500X-0.952500X2.095500X-0.952500X0*%
%ADD14C,1.905000*%
%ADD15RoundRect,0.102000X0.892875X1.749750X-0.892875X1.749750X-0.892875X-1.749750X0.892875X-1.749750X0*%
%ADD16RoundRect,0.102000X1.000000X1.749750X-1.000000X1.749750X-1.000000X-1.749750X1.000000X-1.749750X0*%
%ADD17RoundRect,0.102000X0.785750X1.749750X-0.785750X1.749750X-0.785750X-1.749750X0.785750X-1.749750X0*%
%ADD18RoundRect,0.102000X0.952500X2.095500X-0.952500X2.095500X-0.952500X-2.095500X0.952500X-2.095500X0*%
%ADD19RoundRect,0.102000X1.874875X0.571500X-1.874875X0.571500X-1.874875X-0.571500X1.874875X-0.571500X0*%
%ADD20RoundRect,0.102000X0.571500X1.749750X-0.571500X1.749750X-0.571500X-1.749750X0.571500X-1.749750X0*%
%ADD21RoundRect,0.237500X-0.237500X0.300000X-0.237500X-0.300000X0.237500X-0.300000X0.237500X0.300000X0*%
%ADD22RoundRect,0.237500X-0.300000X-0.237500X0.300000X-0.237500X0.300000X0.237500X-0.300000X0.237500X0*%
%ADD23RoundRect,0.237500X-0.250000X-0.237500X0.250000X-0.237500X0.250000X0.237500X-0.250000X0.237500X0*%
%ADD24RoundRect,0.225000X-0.425000X-0.225000X0.425000X-0.225000X0.425000X0.225000X-0.425000X0.225000X0*%
%ADD25FreePoly0,0.000000*%
%ADD26R,1.700000X1.700000*%
%ADD27C,1.700000*%
%ADD28RoundRect,0.237500X0.300000X0.237500X-0.300000X0.237500X-0.300000X-0.237500X0.300000X-0.237500X0*%
%ADD29RoundRect,0.237500X0.237500X-0.300000X0.237500X0.300000X-0.237500X0.300000X-0.237500X-0.300000X0*%
%ADD30RoundRect,0.087500X-0.537500X-0.087500X0.537500X-0.087500X0.537500X0.087500X-0.537500X0.087500X0*%
%ADD31RoundRect,0.250000X0.550000X-0.550000X0.550000X0.550000X-0.550000X0.550000X-0.550000X-0.550000X0*%
%ADD32C,1.600000*%
%ADD33RoundRect,0.237500X0.237500X-0.250000X0.237500X0.250000X-0.237500X0.250000X-0.237500X-0.250000X0*%
%ADD34R,1.050000X1.500000*%
%ADD35O,1.050000X1.500000*%
%ADD36C,1.400000*%
%ADD37RoundRect,0.770000X0.980000X0.980000X-0.980000X0.980000X-0.980000X-0.980000X0.980000X-0.980000X0*%
%ADD38C,3.500000*%
%ADD39RoundRect,0.250000X-1.500000X-0.650000X1.500000X-0.650000X1.500000X0.650000X-1.500000X0.650000X0*%
G04 APERTURE END LIST*
D10*
%TO.C,J1*%
X-18000000Y57855000D03*
D11*
X-20500000Y57855000D03*
X-23000000Y57855000D03*
%TD*%
D12*
%TO.C,MD1*%
X-4249750Y27000000D03*
D13*
X-6571000Y22428000D03*
D14*
X-6600000Y22400000D03*
D15*
X-7107125Y21500000D03*
D16*
X-10000000Y21500000D03*
D14*
X-11000000Y22400000D03*
D13*
X-11143000Y22428000D03*
D17*
X-12285750Y21500000D03*
D18*
X-14572000Y23571000D03*
D14*
X-14600000Y23600000D03*
D19*
X-15625125Y22500000D03*
D12*
X-15750250Y27000000D03*
X-15750250Y31572000D03*
D20*
X-10000000Y32750250D03*
X-7714000Y32750250D03*
D12*
X-4249750Y31572000D03*
X-4249750Y29286000D03*
X-15750250Y29286000D03*
D20*
X-12286000Y32750250D03*
%TD*%
D21*
%TO.C,C2*%
X-1500000Y20862500D03*
X-1500000Y19137500D03*
%TD*%
D22*
%TO.C,C3*%
X-4862500Y38500000D03*
X-3137500Y38500000D03*
%TD*%
D23*
%TO.C,R7*%
X-5574093Y51967890D03*
X-3749093Y51967890D03*
%TD*%
D24*
%TO.C,U2*%
X-4950000Y44000000D03*
D25*
X-4862500Y42500000D03*
D24*
X-4950000Y41000000D03*
%TD*%
D26*
%TO.C,J4*%
X-40120000Y62500000D03*
D27*
X-37580000Y62500000D03*
X-35040000Y62500000D03*
X-32500000Y62500000D03*
X-29960000Y62500000D03*
X-27420000Y62500000D03*
%TD*%
D28*
%TO.C,C5*%
X-8137500Y48500000D03*
X-9862500Y48500000D03*
%TD*%
D29*
%TO.C,C1*%
X-19500000Y27137500D03*
X-19500000Y28862500D03*
%TD*%
D30*
%TO.C,U1*%
X-12675000Y51250000D03*
X-12675000Y50750000D03*
X-12675000Y50250000D03*
X-12675000Y49750000D03*
X-9875000Y49750000D03*
X-9875000Y50250000D03*
X-9875000Y50750000D03*
X-9875000Y51250000D03*
%TD*%
D31*
%TO.C,D1*%
X-7500000Y38960000D03*
D32*
X-7500000Y46580000D03*
%TD*%
D23*
%TO.C,R5*%
X-5574093Y49967890D03*
X-3749093Y49967890D03*
%TD*%
D33*
%TO.C,R2*%
X-15500000Y35087500D03*
X-15500000Y36912500D03*
%TD*%
%TO.C,R4*%
X-11500000Y38947500D03*
X-11500000Y40772500D03*
%TD*%
D26*
%TO.C,J3*%
X-37600000Y59625000D03*
D27*
X-37600000Y57085000D03*
X-35060000Y59625000D03*
X-35060000Y57085000D03*
X-32520000Y59625000D03*
X-32520000Y57085000D03*
X-29980000Y59625000D03*
X-29980000Y57085000D03*
X-27440000Y59625000D03*
X-27440000Y57085000D03*
%TD*%
D10*
%TO.C,J2*%
X-7000000Y57855000D03*
D11*
X-9500000Y57855000D03*
X-12000000Y57855000D03*
%TD*%
D22*
%TO.C,C4*%
X-4862500Y47000000D03*
X-3137500Y47000000D03*
%TD*%
D33*
%TO.C,R3*%
X-13500000Y38947500D03*
X-13500000Y40772500D03*
%TD*%
D34*
%TO.C,Q1*%
X-15040000Y44500000D03*
D35*
X-13770000Y44500000D03*
X-12500000Y44500000D03*
%TD*%
D36*
%TO.C,J5*%
X-6000000Y3500000D03*
X-17000000Y3500000D03*
D37*
X-14000000Y13500000D03*
D38*
X-9000000Y13500000D03*
%TD*%
D39*
%TO.C,D2*%
X-13000000Y17500000D03*
X-8000000Y17500000D03*
%TD*%
D23*
%TO.C,R6*%
X-5574093Y53967890D03*
X-3749093Y53967890D03*
%TD*%
M02*
