%TF.GenerationSoftware,KiCad,Pcbnew,9.0.2*%
%TF.CreationDate,2025-06-03T21:39:28+09:00*%
%TF.ProjectId,catch25-servo,63617463-6832-4352-9d73-6572766f2e6b,rev?*%
%TF.SameCoordinates,Original*%
%TF.FileFunction,Copper,L1,Top*%
%TF.FilePolarity,Positive*%
%FSLAX46Y46*%
G04 Gerber Fmt 4.6, Leading zero omitted, Abs format (unit mm)*
G04 Created by KiCad (PCBNEW 9.0.2) date 2025-06-03 21:39:28*
%MOMM*%
%LPD*%
G01*
G04 APERTURE LIST*
G04 Aperture macros list*
%AMRoundRect*
0 Rectangle with rounded corners*
0 $1 Rounding radius*
0 $2 $3 $4 $5 $6 $7 $8 $9 X,Y pos of 4 corners*
0 Add a 4 corners polygon primitive as box body*
4,1,4,$2,$3,$4,$5,$6,$7,$8,$9,$2,$3,0*
0 Add four circle primitives for the rounded corners*
1,1,$1+$1,$2,$3*
1,1,$1+$1,$4,$5*
1,1,$1+$1,$6,$7*
1,1,$1+$1,$8,$9*
0 Add four rect primitives between the rounded corners*
20,1,$1+$1,$2,$3,$4,$5,0*
20,1,$1+$1,$4,$5,$6,$7,0*
20,1,$1+$1,$6,$7,$8,$9,0*
20,1,$1+$1,$8,$9,$2,$3,0*%
G04 Aperture macros list end*
%TA.AperFunction,SMDPad,CuDef*%
%ADD10RoundRect,0.237500X-0.237500X0.300000X-0.237500X-0.300000X0.237500X-0.300000X0.237500X0.300000X0*%
%TD*%
%TA.AperFunction,SMDPad,CuDef*%
%ADD11RoundRect,0.375000X-0.625000X-0.375000X0.625000X-0.375000X0.625000X0.375000X-0.625000X0.375000X0*%
%TD*%
%TA.AperFunction,SMDPad,CuDef*%
%ADD12RoundRect,0.500000X-0.500000X-1.400000X0.500000X-1.400000X0.500000X1.400000X-0.500000X1.400000X0*%
%TD*%
%TA.AperFunction,SMDPad,CuDef*%
%ADD13RoundRect,0.250000X-0.475000X0.337500X-0.475000X-0.337500X0.475000X-0.337500X0.475000X0.337500X0*%
%TD*%
%TA.AperFunction,ComponentPad*%
%ADD14RoundRect,0.250000X0.600000X0.675000X-0.600000X0.675000X-0.600000X-0.675000X0.600000X-0.675000X0*%
%TD*%
%TA.AperFunction,ComponentPad*%
%ADD15O,1.700000X1.850000*%
%TD*%
%TA.AperFunction,SMDPad,CuDef*%
%ADD16R,3.499500X1.143000*%
%TD*%
%TA.AperFunction,SMDPad,CuDef*%
%ADD17R,4.191000X1.905000*%
%TD*%
%TA.AperFunction,ComponentPad*%
%ADD18C,1.905000*%
%TD*%
%TA.AperFunction,SMDPad,CuDef*%
%ADD19R,1.785750X3.499500*%
%TD*%
%TA.AperFunction,SMDPad,CuDef*%
%ADD20R,2.000000X3.499500*%
%TD*%
%TA.AperFunction,SMDPad,CuDef*%
%ADD21R,1.571500X3.499500*%
%TD*%
%TA.AperFunction,SMDPad,CuDef*%
%ADD22R,1.905000X4.191000*%
%TD*%
%TA.AperFunction,SMDPad,CuDef*%
%ADD23R,3.749750X1.143000*%
%TD*%
%TA.AperFunction,SMDPad,CuDef*%
%ADD24R,1.143000X3.499500*%
%TD*%
%TA.AperFunction,SMDPad,CuDef*%
%ADD25RoundRect,0.237500X-0.250000X-0.237500X0.250000X-0.237500X0.250000X0.237500X-0.250000X0.237500X0*%
%TD*%
%TA.AperFunction,ComponentPad*%
%ADD26R,1.700000X1.700000*%
%TD*%
%TA.AperFunction,ComponentPad*%
%ADD27C,1.700000*%
%TD*%
%TA.AperFunction,SMDPad,CuDef*%
%ADD28RoundRect,0.237500X0.300000X0.237500X-0.300000X0.237500X-0.300000X-0.237500X0.300000X-0.237500X0*%
%TD*%
%TA.AperFunction,SMDPad,CuDef*%
%ADD29RoundRect,0.237500X0.237500X-0.300000X0.237500X0.300000X-0.237500X0.300000X-0.237500X-0.300000X0*%
%TD*%
%TA.AperFunction,SMDPad,CuDef*%
%ADD30RoundRect,0.087500X-0.537500X-0.087500X0.537500X-0.087500X0.537500X0.087500X-0.537500X0.087500X0*%
%TD*%
%TA.AperFunction,ComponentPad*%
%ADD31RoundRect,0.250000X-0.550000X-0.550000X0.550000X-0.550000X0.550000X0.550000X-0.550000X0.550000X0*%
%TD*%
%TA.AperFunction,ComponentPad*%
%ADD32C,1.600000*%
%TD*%
%TA.AperFunction,SMDPad,CuDef*%
%ADD33RoundRect,0.237500X0.237500X-0.250000X0.237500X0.250000X-0.237500X0.250000X-0.237500X-0.250000X0*%
%TD*%
%TA.AperFunction,SMDPad,CuDef*%
%ADD34RoundRect,0.237500X-0.300000X-0.237500X0.300000X-0.237500X0.300000X0.237500X-0.300000X0.237500X0*%
%TD*%
%TA.AperFunction,ComponentPad*%
%ADD35R,1.050000X1.500000*%
%TD*%
%TA.AperFunction,ComponentPad*%
%ADD36O,1.050000X1.500000*%
%TD*%
%TA.AperFunction,ComponentPad*%
%ADD37C,1.400000*%
%TD*%
%TA.AperFunction,ComponentPad*%
%ADD38RoundRect,0.770000X0.980000X0.980000X-0.980000X0.980000X-0.980000X-0.980000X0.980000X-0.980000X0*%
%TD*%
%TA.AperFunction,ComponentPad*%
%ADD39C,3.500000*%
%TD*%
%TA.AperFunction,SMDPad,CuDef*%
%ADD40RoundRect,0.250000X-1.500000X-0.650000X1.500000X-0.650000X1.500000X0.650000X-1.500000X0.650000X0*%
%TD*%
%TA.AperFunction,ViaPad*%
%ADD41C,0.600000*%
%TD*%
%TA.AperFunction,Conductor*%
%ADD42C,0.500000*%
%TD*%
%TA.AperFunction,Conductor*%
%ADD43C,0.250000*%
%TD*%
%TA.AperFunction,Conductor*%
%ADD44C,4.000000*%
%TD*%
%TA.AperFunction,Conductor*%
%ADD45C,2.000000*%
%TD*%
G04 APERTURE END LIST*
D10*
%TO.P,C3,2*%
%TO.N,GND*%
X-11500000Y39137500D03*
%TO.P,C3,1*%
%TO.N,+BATT*%
X-11500000Y40862500D03*
%TD*%
D11*
%TO.P,U3,1,GND*%
%TO.N,GND*%
X-8650000Y44800000D03*
%TO.P,U3,2,VO*%
%TO.N,+5V*%
X-8650000Y42500000D03*
D12*
X-2350000Y42500000D03*
D11*
%TO.P,U3,3,VI*%
%TO.N,+BATT*%
X-8650000Y40200000D03*
%TD*%
D13*
%TO.P,C2,1*%
%TO.N,+BATT*%
X-1500000Y21037500D03*
%TO.P,C2,2*%
%TO.N,GND*%
X-1500000Y18962500D03*
%TD*%
D14*
%TO.P,J1,1,Pin_1*%
%TO.N,GND*%
X-18000000Y57855000D03*
D15*
%TO.P,J1,2,Pin_2*%
%TO.N,VCC*%
X-20500000Y57855000D03*
%TO.P,J1,3,Pin_3*%
%TO.N,/SERVO_SIG*%
X-23000000Y57855000D03*
%TD*%
D16*
%TO.P,MD1,1,~{ON}/OFF_CONTROL*%
%TO.N,GND*%
X-4249750Y27000000D03*
D17*
%TO.P,MD1,2,VIN*%
%TO.N,+BATT*%
X-6571000Y22428000D03*
D18*
X-6600000Y22400000D03*
D19*
X-7107125Y21500000D03*
D20*
%TO.P,MD1,3,1_GROUND*%
%TO.N,GND*%
X-10000000Y21500000D03*
D18*
X-11000000Y22400000D03*
D17*
X-11143000Y22428000D03*
D21*
X-12285750Y21500000D03*
D22*
%TO.P,MD1,4,VOUT*%
%TO.N,VCC*%
X-14572000Y23571000D03*
D18*
X-14600000Y23600000D03*
D23*
X-15625125Y22500000D03*
D16*
%TO.P,MD1,5,SENSE*%
X-15750250Y27000000D03*
%TO.P,MD1,6,TRIM*%
%TO.N,Net-(MD1-TRIM)*%
X-15750250Y31572000D03*
D24*
%TO.P,MD1,7,2_GROUND*%
%TO.N,GND*%
X-10000000Y32750250D03*
%TO.P,MD1,8,1_NC*%
%TO.N,unconnected-(MD1-1_NC-Pad8)*%
X-7714000Y32750250D03*
D16*
%TO.P,MD1,9,2_NC*%
%TO.N,unconnected-(MD1-2_NC-Pad9)*%
X-4249750Y31572000D03*
%TO.P,MD1,10,POWER_GOOD_OUT*%
%TO.N,unconnected-(MD1-POWER_GOOD_OUT-Pad10)*%
X-4249750Y29286000D03*
%TO.P,MD1,11,3_NC*%
%TO.N,unconnected-(MD1-3_NC-Pad11)*%
X-15750250Y29286000D03*
D24*
%TO.P,MD1,12,4_NC*%
%TO.N,unconnected-(MD1-4_NC-Pad12)*%
X-12286000Y32750250D03*
%TD*%
D25*
%TO.P,R7,1*%
%TO.N,/UART_RX*%
X-5574093Y51967890D03*
%TO.P,R7,2*%
%TO.N,+5V*%
X-3749093Y51967890D03*
%TD*%
D26*
%TO.P,J4,1,Pin_1*%
%TO.N,GND*%
X-40120000Y62500000D03*
D27*
%TO.P,J4,2,Pin_2*%
%TO.N,unconnected-(J4-Pin_2-Pad2)*%
X-37580000Y62500000D03*
%TO.P,J4,3,Pin_3*%
%TO.N,unconnected-(J4-Pin_3-Pad3)*%
X-35040000Y62500000D03*
%TO.P,J4,4,Pin_4*%
%TO.N,/UART_TX*%
X-32500000Y62500000D03*
%TO.P,J4,5,Pin_5*%
%TO.N,/UART_RX*%
X-29960000Y62500000D03*
%TO.P,J4,6,Pin_6*%
%TO.N,unconnected-(J4-Pin_6-Pad6)*%
X-27420000Y62500000D03*
%TD*%
D28*
%TO.P,C5,1*%
%TO.N,+5V*%
X-8137500Y48500000D03*
%TO.P,C5,2*%
%TO.N,GND*%
X-9862500Y48500000D03*
%TD*%
D29*
%TO.P,C1,1*%
%TO.N,VCC*%
X-19500000Y27137500D03*
%TO.P,C1,2*%
%TO.N,GND*%
X-19500000Y28862500D03*
%TD*%
D30*
%TO.P,U1,1,/G*%
%TO.N,/TXEN*%
X-12675000Y51250000D03*
%TO.P,U1,2,A1*%
%TO.N,/UART_TX*%
X-12675000Y50750000D03*
%TO.P,U1,3,Y2*%
%TO.N,/UART_RX*%
X-12675000Y50250000D03*
%TO.P,U1,4,GND*%
%TO.N,GND*%
X-12675000Y49750000D03*
%TO.P,U1,5,A2*%
%TO.N,/SERVO_SIG*%
X-9875000Y49750000D03*
%TO.P,U1,6,Y1*%
X-9875000Y50250000D03*
%TO.P,U1,7,G*%
%TO.N,/TXEN*%
X-9875000Y50750000D03*
%TO.P,U1,8,VCC*%
%TO.N,+5V*%
X-9875000Y51250000D03*
%TD*%
D31*
%TO.P,D1,1,K*%
%TO.N,+BATT*%
X-9810000Y37000000D03*
D32*
%TO.P,D1,2,A*%
%TO.N,+5V*%
X-2190000Y37000000D03*
%TD*%
D25*
%TO.P,R5,1*%
%TO.N,/SERVO_SIG*%
X-5574093Y49967890D03*
%TO.P,R5,2*%
%TO.N,+5V*%
X-3749093Y49967890D03*
%TD*%
D33*
%TO.P,R2,1*%
%TO.N,Net-(MD1-TRIM)*%
X-15500000Y35087500D03*
%TO.P,R2,2*%
%TO.N,GND*%
X-15500000Y36912500D03*
%TD*%
%TO.P,R4,1*%
%TO.N,GND*%
X-13000000Y39087500D03*
%TO.P,R4,2*%
%TO.N,/TXEN*%
X-13000000Y40912500D03*
%TD*%
D26*
%TO.P,J3,1,Pin_1*%
%TO.N,+5V*%
X-37600000Y59625000D03*
D27*
%TO.P,J3,2,Pin_2*%
%TO.N,unconnected-(J3-Pin_2-Pad2)*%
X-37600000Y57085000D03*
%TO.P,J3,3,Pin_3*%
%TO.N,/UART_RX*%
X-35060000Y59625000D03*
%TO.P,J3,4,Pin_4*%
%TO.N,unconnected-(J3-Pin_4-Pad4)*%
X-35060000Y57085000D03*
%TO.P,J3,5,Pin_5*%
%TO.N,/UART_TX*%
X-32520000Y59625000D03*
%TO.P,J3,6,Pin_6*%
%TO.N,unconnected-(J3-Pin_6-Pad6)*%
X-32520000Y57085000D03*
%TO.P,J3,7,Pin_7*%
%TO.N,GND*%
X-29980000Y59625000D03*
%TO.P,J3,8,Pin_8*%
%TO.N,unconnected-(J3-Pin_8-Pad8)*%
X-29980000Y57085000D03*
%TO.P,J3,9,Pin_9*%
%TO.N,unconnected-(J3-Pin_9-Pad9)*%
X-27440000Y59625000D03*
%TO.P,J3,10,Pin_10*%
%TO.N,unconnected-(J3-Pin_10-Pad10)*%
X-27440000Y57085000D03*
%TD*%
D14*
%TO.P,J2,1,Pin_1*%
%TO.N,GND*%
X-7000000Y57855000D03*
D15*
%TO.P,J2,2,Pin_2*%
%TO.N,VCC*%
X-9500000Y57855000D03*
%TO.P,J2,3,Pin_3*%
%TO.N,/SERVO_SIG*%
X-12000000Y57855000D03*
%TD*%
D34*
%TO.P,C4,1*%
%TO.N,+5V*%
X-4862500Y47000000D03*
%TO.P,C4,2*%
%TO.N,GND*%
X-3137500Y47000000D03*
%TD*%
D33*
%TO.P,R3,1*%
%TO.N,/UART_TX*%
X-14500000Y39087500D03*
%TO.P,R3,2*%
%TO.N,Net-(Q1-B)*%
X-14500000Y40912500D03*
%TD*%
D35*
%TO.P,Q1,1,E*%
%TO.N,+5V*%
X-15040000Y44500000D03*
D36*
%TO.P,Q1,2,B*%
%TO.N,Net-(Q1-B)*%
X-13770000Y44500000D03*
%TO.P,Q1,3,C*%
%TO.N,/TXEN*%
X-12500000Y44500000D03*
%TD*%
D37*
%TO.P,J5,*%
%TO.N,*%
X-6000000Y3500000D03*
X-17000000Y3500000D03*
D38*
%TO.P,J5,1,Pin_1*%
%TO.N,GND*%
X-14000000Y13500000D03*
D39*
%TO.P,J5,2,Pin_2*%
%TO.N,+BATT*%
X-9000000Y13500000D03*
%TD*%
D40*
%TO.P,D2,1,A1*%
%TO.N,GND*%
X-13000000Y17500000D03*
%TO.P,D2,2,A2*%
%TO.N,+BATT*%
X-8000000Y17500000D03*
%TD*%
D25*
%TO.P,R6,1*%
%TO.N,/UART_TX*%
X-5574093Y53967890D03*
%TO.P,R6,2*%
%TO.N,+5V*%
X-3749093Y53967890D03*
%TD*%
D41*
%TO.N,GND*%
X-6500000Y43500000D03*
X-6500000Y45500000D03*
X-6500000Y44500000D03*
X-6000000Y48500000D03*
X-13500000Y4500000D03*
X-10500000Y44000000D03*
X-11000000Y26500000D03*
X-10500000Y3500000D03*
X-9500000Y4500000D03*
X-8000000Y29500000D03*
X-9000000Y29500000D03*
X-10500000Y6500000D03*
X-13500000Y5500000D03*
X-13500000Y48500000D03*
X-11500000Y3500000D03*
X-10000000Y29500000D03*
X-8000000Y26500000D03*
X-9000000Y26500000D03*
X-9500000Y3500000D03*
X-10500000Y45000000D03*
X-11500000Y5500000D03*
X-10500000Y43000000D03*
X-13500000Y6500000D03*
X-11000000Y47500000D03*
X-12500000Y6500000D03*
X-12500000Y5500000D03*
X-10500000Y5500000D03*
X-9500000Y5500000D03*
X-10000000Y27500000D03*
X-12000000Y29500000D03*
X-9000000Y28500000D03*
X-13500000Y47500000D03*
X-12500000Y3500000D03*
X-12500000Y48500000D03*
X-12000000Y28500000D03*
X-8000000Y28500000D03*
X-11000000Y28500000D03*
X-11000000Y27500000D03*
X-9500000Y6500000D03*
X-10500000Y4500000D03*
X-12000000Y27500000D03*
X-12500000Y4500000D03*
X-11000000Y29500000D03*
X-10000000Y28500000D03*
X-9000000Y27500000D03*
X-11500000Y4500000D03*
X-12000000Y26500000D03*
X-10000000Y26500000D03*
X-13500000Y3500000D03*
X-11500000Y6500000D03*
X-8000000Y27500000D03*
%TO.N,+5V*%
X-8000000Y51000000D03*
%TO.N,/UART_TX*%
X-18500000Y50750000D03*
X-16000000Y40000000D03*
%TO.N,/TXEN*%
X-12500000Y52000000D03*
X-6500000Y51000000D03*
%TD*%
D42*
%TO.N,+5V*%
X-3500000Y42500000D02*
X-2350000Y42500000D01*
X-4862500Y43862500D02*
X-3500000Y42500000D01*
X-4862500Y45012500D02*
X-4862500Y43862500D01*
X-4862500Y43637500D02*
X-6000000Y42500000D01*
X-4862500Y45012500D02*
X-4862500Y43637500D01*
X-6000000Y42500000D02*
X-8650000Y42500000D01*
X-4862500Y47000000D02*
X-4862500Y45012500D01*
D43*
X-2190000Y42340000D02*
X-2350000Y42500000D01*
X-2190000Y37000000D02*
X-2190000Y42340000D01*
%TO.N,+BATT*%
X-7500000Y37000000D02*
X-6000000Y35500000D01*
X-9810000Y37000000D02*
X-7500000Y37000000D01*
X-8650000Y38212500D02*
X-8650000Y40200000D01*
X-9810000Y37052500D02*
X-8650000Y38212500D01*
X-9810000Y37000000D02*
X-9810000Y37052500D01*
X-9312500Y40862500D02*
X-8650000Y40200000D01*
X-11500000Y40862500D02*
X-9312500Y40862500D01*
%TO.N,/TXEN*%
X-12500000Y41772500D02*
X-13000000Y41272500D01*
X-13000000Y41272500D02*
X-13000000Y40912500D01*
X-12500000Y44500000D02*
X-12500000Y41772500D01*
%TO.N,Net-(Q1-B)*%
X-14500000Y40912500D02*
X-13500000Y41912500D01*
%TO.N,/UART_TX*%
X-14947500Y38947500D02*
X-16000000Y40000000D01*
X-14640000Y38947500D02*
X-14947500Y38947500D01*
X-14500000Y39087500D02*
X-14640000Y38947500D01*
%TO.N,Net-(Q1-B)*%
X-13500000Y44230000D02*
X-13770000Y44500000D01*
X-13500000Y41912500D02*
X-13500000Y44230000D01*
D42*
%TO.N,+BATT*%
X-2000000Y35500000D02*
X-6000000Y35500000D01*
X-1500000Y35000000D02*
X-2000000Y35500000D01*
X-2355000Y24454266D02*
X-1500000Y25309266D01*
X-2355000Y22783000D02*
X-2355000Y24454266D01*
X-1500000Y25309266D02*
X-1500000Y35000000D01*
X-2000000Y22428000D02*
X-2355000Y22783000D01*
%TO.N,VCC*%
X-14572000Y25821750D02*
X-15750250Y27000000D01*
X-19362500Y27000000D02*
X-19500000Y27137500D01*
X-15750250Y27000000D02*
X-19362500Y27000000D01*
X-14572000Y23571000D02*
X-14572000Y25821750D01*
%TO.N,GND*%
X-13500000Y48500000D02*
X-13500000Y48925000D01*
X-19951000Y63801000D02*
X-18000000Y61850000D01*
X-25875000Y60926000D02*
X-23000000Y63801000D01*
X-40120000Y62500000D02*
X-38819000Y63801000D01*
X-10470000Y61325000D02*
X-7000000Y57855000D01*
X-14530000Y61325000D02*
X-10470000Y61325000D01*
X-38819000Y63801000D02*
X-23000000Y63801000D01*
D44*
X-14000000Y17123164D02*
X-14000000Y13500000D01*
X-11000000Y22400000D02*
X-11000000Y20123164D01*
D42*
X-29980000Y59625000D02*
X-28679000Y60926000D01*
X-18000000Y57855000D02*
X-14530000Y61325000D01*
X-28679000Y60926000D02*
X-25875000Y60926000D01*
X-18000000Y61850000D02*
X-18000000Y57855000D01*
X-12801000Y49624000D02*
X-12675000Y49624000D01*
X-13500000Y48925000D02*
X-12801000Y49624000D01*
X-23000000Y63801000D02*
X-19951000Y63801000D01*
D44*
X-11000000Y20123164D02*
X-14000000Y17123164D01*
X-11000000Y22400000D02*
X-11000000Y26500000D01*
D45*
%TO.N,+BATT*%
X-6600000Y17575000D02*
X-6600000Y22400000D01*
D42*
X-1500000Y21928000D02*
X-1500000Y20862500D01*
D45*
X-9000000Y13500000D02*
X-9000000Y15000000D01*
X-9000000Y15175000D02*
X-6600000Y17575000D01*
X-9000000Y15000000D02*
X-8000000Y16000000D01*
X-9000000Y13500000D02*
X-9000000Y15175000D01*
X-8000000Y16000000D02*
X-8000000Y17500000D01*
D42*
X-2000000Y22428000D02*
X-1500000Y21928000D01*
X-6571000Y22428000D02*
X-2000000Y22428000D01*
D43*
%TO.N,+5V*%
X-9875000Y51250000D02*
X-8250000Y51250000D01*
D42*
X-3749093Y53967890D02*
X-3749093Y51967890D01*
D43*
X-8250000Y51250000D02*
X-8000000Y51000000D01*
X-37600000Y59625000D02*
X-36424000Y58449000D01*
D42*
X-3749093Y51967890D02*
X-3749093Y49967890D01*
X-4950000Y46912500D02*
X-4862500Y47000000D01*
X-4862500Y47000000D02*
X-7080000Y47000000D01*
D43*
X-8137500Y47217500D02*
X-7500000Y46580000D01*
X-36424000Y56785884D02*
X-29138116Y49500000D01*
X-20040000Y49500000D02*
X-15040000Y44500000D01*
D42*
X-3500000Y49000000D02*
X-3587500Y49087500D01*
D43*
X-8137500Y48500000D02*
X-8137500Y47217500D01*
D42*
X-3587500Y49806297D02*
X-3749093Y49967890D01*
D43*
X-36424000Y58449000D02*
X-36424000Y56785884D01*
X-29138116Y49500000D02*
X-20040000Y49500000D01*
D42*
X-7080000Y47000000D02*
X-7500000Y46580000D01*
X-4862500Y47637500D02*
X-3500000Y49000000D01*
X-3587500Y49087500D02*
X-3587500Y49806297D01*
X-4862500Y47000000D02*
X-4862500Y47637500D01*
D43*
%TO.N,/SERVO_SIG*%
X-5084103Y54768890D02*
X-8913890Y54768890D01*
X-9875000Y50250000D02*
X-9875000Y49750000D01*
X-4760593Y54445380D02*
X-5084103Y54768890D01*
X-20145000Y55000000D02*
X-23000000Y57855000D01*
X-5574093Y49967890D02*
X-4760593Y50781390D01*
X-12000000Y57855000D02*
X-14855000Y55000000D01*
X-14855000Y55000000D02*
X-20145000Y55000000D01*
X-4760593Y50781390D02*
X-4760593Y54445380D01*
X-5791983Y49750000D02*
X-5574093Y49967890D01*
X-9875000Y49750000D02*
X-5791983Y49750000D01*
X-8913890Y54768890D02*
X-12000000Y57855000D01*
%TO.N,/UART_TX*%
X-12675000Y50750000D02*
X-11886396Y50750000D01*
X-18500000Y50750000D02*
X-26750000Y50750000D01*
X-8466120Y53967890D02*
X-5574093Y53967890D01*
X-32520000Y59625000D02*
X-32520000Y62480000D01*
X-9735010Y52699000D02*
X-8466120Y53967890D01*
X-11886396Y50750000D02*
X-11500000Y51136396D01*
X-12675000Y50750000D02*
X-18500000Y50750000D01*
X-32520000Y62480000D02*
X-32500000Y62500000D01*
X-10801000Y52699000D02*
X-9735010Y52699000D01*
X-11500000Y52000000D02*
X-10801000Y52699000D01*
X-11500000Y51136396D02*
X-11500000Y52000000D01*
X-31344000Y55344000D02*
X-31344000Y58449000D01*
X-26750000Y50750000D02*
X-31344000Y55344000D01*
X-31344000Y58449000D02*
X-32520000Y59625000D01*
%TO.N,/UART_RX*%
X-11049000Y50951000D02*
X-11750000Y50250000D01*
X-6513295Y51967890D02*
X-7720405Y53175000D01*
X-7720405Y53175000D02*
X-8622614Y53175000D01*
X-18954595Y50250000D02*
X-27348116Y50250000D01*
X-8622614Y53175000D02*
X-9829724Y51967890D01*
X-11049000Y51451000D02*
X-11049000Y50951000D01*
X-12675000Y50250000D02*
X-17545405Y50250000D01*
X-11750000Y50250000D02*
X-12675000Y50250000D01*
X-17720405Y50075000D02*
X-18779595Y50075000D01*
X-17545405Y50250000D02*
X-17720405Y50075000D01*
X-5574093Y51967890D02*
X-6513295Y51967890D01*
X-10532110Y51967890D02*
X-11049000Y51451000D01*
X-33884000Y56785884D02*
X-33884000Y58449000D01*
X-9829724Y51967890D02*
X-10532110Y51967890D01*
X-27348116Y50250000D02*
X-33884000Y56785884D01*
X-33884000Y58449000D02*
X-35060000Y59625000D01*
X-18779595Y50075000D02*
X-18954595Y50250000D01*
%TO.N,Net-(MD1-TRIM)*%
X-15500000Y31822250D02*
X-15750250Y31572000D01*
X-15500000Y35087500D02*
X-15500000Y31822250D01*
%TO.N,/TXEN*%
X-10612190Y50750000D02*
X-11000000Y50362190D01*
X-11000000Y48500000D02*
X-12500000Y47000000D01*
X-12675000Y51825000D02*
X-12500000Y52000000D01*
X-11000000Y50362190D02*
X-11000000Y48500000D01*
X-7175000Y50325000D02*
X-6500000Y51000000D01*
X-12675000Y51250000D02*
X-12675000Y51825000D01*
X-9875000Y50750000D02*
X-10612190Y50750000D01*
X-9875000Y50750000D02*
X-8704595Y50750000D01*
X-12500000Y47000000D02*
X-12500000Y44500000D01*
X-8704595Y50750000D02*
X-8279595Y50325000D01*
X-8279595Y50325000D02*
X-7175000Y50325000D01*
%TD*%
%TA.AperFunction,Conductor*%
%TO.N,GND*%
G36*
X-39870000Y61150000D02*
G01*
X-39222172Y61150000D01*
X-39222156Y61150001D01*
X-39162628Y61156402D01*
X-39162621Y61156404D01*
X-39027914Y61206646D01*
X-39027907Y61206650D01*
X-38912813Y61292810D01*
X-38912810Y61292813D01*
X-38826650Y61407907D01*
X-38826646Y61407914D01*
X-38777578Y61539471D01*
X-38735707Y61595405D01*
X-38670243Y61619822D01*
X-38601970Y61604970D01*
X-38573715Y61583819D01*
X-38459787Y61469891D01*
X-38287821Y61344952D01*
X-38287819Y61344951D01*
X-38287816Y61344949D01*
X-38098412Y61248443D01*
X-38002963Y61217430D01*
X-37945290Y61177994D01*
X-37918091Y61113635D01*
X-37930005Y61044789D01*
X-37977249Y60993313D01*
X-38041283Y60975500D01*
X-38497871Y60975500D01*
X-38497877Y60975499D01*
X-38557484Y60969092D01*
X-38692329Y60918798D01*
X-38692336Y60918794D01*
X-38807545Y60832548D01*
X-38807548Y60832545D01*
X-38893794Y60717336D01*
X-38893798Y60717329D01*
X-38944092Y60582483D01*
X-38950499Y60522884D01*
X-38950500Y60522865D01*
X-38950500Y58727130D01*
X-38950499Y58727124D01*
X-38944092Y58667517D01*
X-38893798Y58532672D01*
X-38893794Y58532665D01*
X-38807548Y58417456D01*
X-38807545Y58417453D01*
X-38692336Y58331207D01*
X-38692329Y58331203D01*
X-38560918Y58282190D01*
X-38504984Y58240319D01*
X-38480567Y58174855D01*
X-38495418Y58106582D01*
X-38516569Y58078327D01*
X-38630111Y57964785D01*
X-38755049Y57792821D01*
X-38851556Y57603415D01*
X-38917247Y57401240D01*
X-38939366Y57261586D01*
X-38950500Y57191287D01*
X-38950500Y56978713D01*
X-38917246Y56768757D01*
X-38870520Y56624949D01*
X-38851556Y56566586D01*
X-38755049Y56377180D01*
X-38630110Y56205214D01*
X-38479787Y56054891D01*
X-38307821Y55929952D01*
X-38307819Y55929951D01*
X-38307816Y55929949D01*
X-38118412Y55833443D01*
X-37916243Y55767754D01*
X-37706287Y55734500D01*
X-37706286Y55734500D01*
X-37493714Y55734500D01*
X-37493713Y55734500D01*
X-37283757Y55767754D01*
X-37081588Y55833443D01*
X-36892184Y55929949D01*
X-36723291Y56052656D01*
X-36657485Y56076136D01*
X-36589431Y56060310D01*
X-36562725Y56040019D01*
X-29623977Y49101271D01*
X-29623974Y49101267D01*
X-29536849Y49014142D01*
X-29459926Y48962744D01*
X-29454126Y48958868D01*
X-29454123Y48958866D01*
X-29434406Y48945691D01*
X-29434403Y48945689D01*
X-29434401Y48945688D01*
X-29387069Y48926083D01*
X-29387068Y48926082D01*
X-29387067Y48926082D01*
X-29320568Y48898537D01*
X-29292086Y48892872D01*
X-29266393Y48887761D01*
X-29266373Y48887758D01*
X-29266351Y48887753D01*
X-29199725Y48874501D01*
X-29199724Y48874500D01*
X-29199723Y48874500D01*
X-29199722Y48874500D01*
X-20350452Y48874500D01*
X-20283413Y48854815D01*
X-20262771Y48838181D01*
X-16101819Y44677229D01*
X-16068334Y44615906D01*
X-16065500Y44589548D01*
X-16065500Y43702130D01*
X-16065499Y43702124D01*
X-16059092Y43642517D01*
X-16008798Y43507672D01*
X-16008794Y43507665D01*
X-15922548Y43392456D01*
X-15922545Y43392453D01*
X-15807336Y43306207D01*
X-15807329Y43306203D01*
X-15672483Y43255909D01*
X-15672484Y43255909D01*
X-15665556Y43255165D01*
X-15612873Y43249500D01*
X-14467128Y43249501D01*
X-14407517Y43255909D01*
X-14369241Y43270185D01*
X-14292833Y43298683D01*
X-14223141Y43303667D01*
X-14161818Y43270182D01*
X-14128334Y43208858D01*
X-14125500Y43182501D01*
X-14125500Y42222953D01*
X-14145185Y42155914D01*
X-14161819Y42135272D01*
X-14360273Y41936819D01*
X-14421596Y41903334D01*
X-14447954Y41900500D01*
X-14786669Y41900500D01*
X-14786688Y41900499D01*
X-14887753Y41890175D01*
X-15051516Y41835908D01*
X-15051519Y41835907D01*
X-15198352Y41745339D01*
X-15320339Y41623352D01*
X-15410907Y41476519D01*
X-15410908Y41476516D01*
X-15465174Y41312753D01*
X-15465174Y41312752D01*
X-15465175Y41312752D01*
X-15475500Y41211685D01*
X-15475500Y40834779D01*
X-15495185Y40767740D01*
X-15547989Y40721985D01*
X-15617147Y40712041D01*
X-15646952Y40720218D01*
X-15766499Y40769736D01*
X-15766511Y40769739D01*
X-15921155Y40800500D01*
X-15921158Y40800500D01*
X-16078842Y40800500D01*
X-16078845Y40800500D01*
X-16233490Y40769739D01*
X-16233502Y40769736D01*
X-16379173Y40709398D01*
X-16379186Y40709391D01*
X-16510289Y40621790D01*
X-16510293Y40621787D01*
X-16621787Y40510293D01*
X-16621790Y40510289D01*
X-16709391Y40379186D01*
X-16709398Y40379173D01*
X-16769736Y40233502D01*
X-16769739Y40233490D01*
X-16800500Y40078847D01*
X-16800500Y39921154D01*
X-16769739Y39766511D01*
X-16769736Y39766499D01*
X-16709398Y39620828D01*
X-16709391Y39620815D01*
X-16621790Y39489712D01*
X-16621787Y39489708D01*
X-16510293Y39378214D01*
X-16510289Y39378211D01*
X-16379186Y39290610D01*
X-16379173Y39290603D01*
X-16291770Y39254401D01*
X-16233497Y39230263D01*
X-16122284Y39208142D01*
X-16060377Y39175759D01*
X-16058797Y39174207D01*
X-15433361Y38548771D01*
X-15433358Y38548767D01*
X-15425714Y38541123D01*
X-15425711Y38541117D01*
X-15407862Y38518546D01*
X-15320340Y38376650D01*
X-15198350Y38254660D01*
X-15051516Y38164092D01*
X-14887753Y38109826D01*
X-14786677Y38099500D01*
X-14213324Y38099501D01*
X-14213316Y38099502D01*
X-14213313Y38099502D01*
X-14157970Y38105156D01*
X-14112247Y38109826D01*
X-13948484Y38164092D01*
X-13814620Y38246661D01*
X-13747228Y38265100D01*
X-13684427Y38246659D01*
X-13551312Y38164552D01*
X-13551301Y38164547D01*
X-13387653Y38110320D01*
X-13286648Y38100001D01*
X-13250000Y38100001D01*
X-13250000Y38837500D01*
X-12750000Y38837500D01*
X-12750000Y38100001D01*
X-12713360Y38100001D01*
X-12713346Y38100002D01*
X-12612348Y38110320D01*
X-12448700Y38164547D01*
X-12448693Y38164550D01*
X-12315098Y38246953D01*
X-12247705Y38265394D01*
X-12184902Y38246953D01*
X-12051308Y38164550D01*
X-12051301Y38164547D01*
X-11887653Y38110320D01*
X-11786648Y38100001D01*
X-11750000Y38100001D01*
X-11750000Y38887500D01*
X-11895000Y38887500D01*
X-11908681Y38873819D01*
X-11970004Y38840334D01*
X-11996362Y38837500D01*
X-12750000Y38837500D01*
X-13250000Y38837500D01*
X-13250000Y38963500D01*
X-13230315Y39030539D01*
X-13177511Y39076294D01*
X-13126000Y39087500D01*
X-13000000Y39087500D01*
X-13000000Y39213500D01*
X-12980315Y39280539D01*
X-12927511Y39326294D01*
X-12876000Y39337500D01*
X-12605000Y39337500D01*
X-12591319Y39351181D01*
X-12529996Y39384666D01*
X-12503638Y39387500D01*
X-10525001Y39387500D01*
X-10525001Y39486640D01*
X-10525002Y39486655D01*
X-10535320Y39587653D01*
X-10589547Y39751301D01*
X-10589552Y39751312D01*
X-10680053Y39898035D01*
X-10680056Y39898039D01*
X-10693983Y39911966D01*
X-10727468Y39973289D01*
X-10722484Y40042981D01*
X-10707892Y40070748D01*
X-10701666Y40079645D01*
X-10679660Y40101650D01*
X-10630627Y40181146D01*
X-10628558Y40184101D01*
X-10603970Y40203765D01*
X-10580558Y40224822D01*
X-10576479Y40225750D01*
X-10573991Y40227738D01*
X-10562466Y40228934D01*
X-10526968Y40237000D01*
X-10274500Y40237000D01*
X-10207461Y40217315D01*
X-10161706Y40164511D01*
X-10150500Y40113000D01*
X-10150500Y39748879D01*
X-10150499Y39748875D01*
X-10147601Y39706114D01*
X-10147601Y39706113D01*
X-10101640Y39521304D01*
X-10017033Y39350708D01*
X-10017031Y39350705D01*
X-9897723Y39202279D01*
X-9897722Y39202278D01*
X-9749296Y39082970D01*
X-9749293Y39082968D01*
X-9578698Y38998361D01*
X-9578697Y38998361D01*
X-9578693Y38998359D01*
X-9393889Y38952400D01*
X-9391118Y38952213D01*
X-9389951Y38951782D01*
X-9388505Y38951555D01*
X-9388551Y38951266D01*
X-9325566Y38928045D01*
X-9283483Y38872271D01*
X-9275500Y38828497D01*
X-9275500Y38522953D01*
X-9284145Y38493514D01*
X-9290668Y38463526D01*
X-9294423Y38458511D01*
X-9295185Y38455914D01*
X-9311815Y38435277D01*
X-9370441Y38376650D01*
X-9410273Y38336818D01*
X-9471597Y38303334D01*
X-9497954Y38300500D01*
X-10410002Y38300500D01*
X-10410020Y38300499D01*
X-10498408Y38291469D01*
X-10567101Y38304239D01*
X-10617985Y38352120D01*
X-10634905Y38419910D01*
X-10616547Y38479925D01*
X-10589550Y38523694D01*
X-10589547Y38523700D01*
X-10535320Y38687348D01*
X-10525001Y38788346D01*
X-10525000Y38788359D01*
X-10525000Y38887500D01*
X-11250000Y38887500D01*
X-11250000Y38100001D01*
X-11213360Y38100001D01*
X-11213348Y38100002D01*
X-11131780Y38108335D01*
X-11063087Y38095566D01*
X-11012202Y38047686D01*
X-10995281Y37979896D01*
X-11013637Y37919882D01*
X-11044811Y37869339D01*
X-11044815Y37869332D01*
X-11061695Y37818391D01*
X-11099999Y37702797D01*
X-11099999Y37702796D01*
X-11100000Y37702796D01*
X-11110500Y37600017D01*
X-11110500Y36399999D01*
X-11110499Y36399982D01*
X-11100000Y36297204D01*
X-11099999Y36297201D01*
X-11068441Y36201967D01*
X-11044814Y36130666D01*
X-10952712Y35981344D01*
X-10828656Y35857288D01*
X-10679334Y35765186D01*
X-10512797Y35710001D01*
X-10410009Y35699500D01*
X-9209992Y35699501D01*
X-9107203Y35710001D01*
X-8940666Y35765186D01*
X-8791344Y35857288D01*
X-8667288Y35981344D01*
X-8575186Y36130666D01*
X-8522552Y36289507D01*
X-8482781Y36346949D01*
X-8418265Y36373772D01*
X-8404847Y36374500D01*
X-7810452Y36374500D01*
X-7743413Y36354815D01*
X-7722771Y36338181D01*
X-6762157Y35377566D01*
X-6728672Y35316243D01*
X-6728221Y35314077D01*
X-6721660Y35281093D01*
X-6721658Y35281085D01*
X-6665088Y35144512D01*
X-6665081Y35144499D01*
X-6582952Y35021585D01*
X-6582949Y35021581D01*
X-6478420Y34917052D01*
X-6478416Y34917049D01*
X-6355502Y34834920D01*
X-6355489Y34834913D01*
X-6218918Y34778344D01*
X-6218913Y34778342D01*
X-6218909Y34778342D01*
X-6218908Y34778341D01*
X-6073921Y34749500D01*
X-6073918Y34749500D01*
X-2374500Y34749500D01*
X-2307461Y34729815D01*
X-2261706Y34677011D01*
X-2250500Y34625500D01*
X-2250500Y32760369D01*
X-2270185Y32693330D01*
X-2322989Y32647575D01*
X-2387754Y32637079D01*
X-2394244Y32637777D01*
X-2452127Y32644000D01*
X-2452135Y32644000D01*
X-6047371Y32644000D01*
X-6047377Y32643999D01*
X-6106984Y32637592D01*
X-6241829Y32587298D01*
X-6241836Y32587294D01*
X-6357045Y32501048D01*
X-6418735Y32418641D01*
X-6474669Y32376771D01*
X-6544361Y32371787D01*
X-6605683Y32405273D01*
X-6639168Y32466597D01*
X-6642001Y32492948D01*
X-6642001Y34547872D01*
X-6648409Y34607483D01*
X-6662487Y34645227D01*
X-6698703Y34742329D01*
X-6698707Y34742336D01*
X-6784953Y34857545D01*
X-6784956Y34857548D01*
X-6900165Y34943794D01*
X-6900172Y34943798D01*
X-7035018Y34994092D01*
X-7035017Y34994092D01*
X-7094617Y35000499D01*
X-7094619Y35000500D01*
X-7094627Y35000500D01*
X-7094636Y35000500D01*
X-8333371Y35000500D01*
X-8333377Y35000499D01*
X-8392984Y34994092D01*
X-8527829Y34943798D01*
X-8527836Y34943794D01*
X-8643045Y34857548D01*
X-8643048Y34857545D01*
X-8729294Y34742336D01*
X-8729299Y34742326D01*
X-8741086Y34710724D01*
X-8782958Y34654791D01*
X-8848422Y34630375D01*
X-8916695Y34645227D01*
X-8966100Y34694633D01*
X-8973449Y34710726D01*
X-8985146Y34742087D01*
X-8985150Y34742094D01*
X-9071310Y34857188D01*
X-9071313Y34857191D01*
X-9186407Y34943351D01*
X-9186414Y34943355D01*
X-9321121Y34993597D01*
X-9321128Y34993599D01*
X-9380656Y35000000D01*
X-9750000Y35000000D01*
X-9750000Y30500500D01*
X-9380672Y30500500D01*
X-9380656Y30500501D01*
X-9321128Y30506902D01*
X-9321121Y30506904D01*
X-9186414Y30557146D01*
X-9186407Y30557150D01*
X-9071313Y30643310D01*
X-9071310Y30643313D01*
X-8985150Y30758407D01*
X-8985145Y30758416D01*
X-8973449Y30789774D01*
X-8931579Y30845708D01*
X-8866115Y30870126D01*
X-8797842Y30855275D01*
X-8748436Y30805870D01*
X-8741085Y30789776D01*
X-8729297Y30758170D01*
X-8729294Y30758165D01*
X-8643048Y30642956D01*
X-8643045Y30642953D01*
X-8527836Y30556707D01*
X-8527829Y30556703D01*
X-8392983Y30506409D01*
X-8392984Y30506409D01*
X-8386056Y30505665D01*
X-8333373Y30500000D01*
X-7094628Y30500001D01*
X-7035017Y30506409D01*
X-6900169Y30556704D01*
X-6784954Y30642954D01*
X-6698704Y30758169D01*
X-6687182Y30789060D01*
X-6645312Y30844994D01*
X-6579848Y30869412D01*
X-6511575Y30854561D01*
X-6462169Y30805156D01*
X-6454818Y30789060D01*
X-6443299Y30758174D01*
X-6443294Y30758165D01*
X-6357048Y30642956D01*
X-6357045Y30642953D01*
X-6241836Y30556707D01*
X-6241829Y30556703D01*
X-6210940Y30545182D01*
X-6155006Y30503311D01*
X-6130589Y30437847D01*
X-6145441Y30369574D01*
X-6194846Y30320168D01*
X-6210940Y30312818D01*
X-6241829Y30301298D01*
X-6241836Y30301294D01*
X-6357045Y30215048D01*
X-6357048Y30215045D01*
X-6443294Y30099836D01*
X-6443298Y30099829D01*
X-6493592Y29964983D01*
X-6499999Y29905384D01*
X-6499999Y29905377D01*
X-6500000Y29905365D01*
X-6500000Y28666630D01*
X-6499999Y28666624D01*
X-6493592Y28607017D01*
X-6443298Y28472172D01*
X-6443294Y28472165D01*
X-6357048Y28356956D01*
X-6357045Y28356953D01*
X-6241836Y28270707D01*
X-6241827Y28270702D01*
X-6210227Y28258916D01*
X-6154293Y28217046D01*
X-6129875Y28151581D01*
X-6144726Y28083308D01*
X-6194131Y28033902D01*
X-6210224Y28026553D01*
X-6241584Y28014856D01*
X-6241594Y28014851D01*
X-6356688Y27928691D01*
X-6356691Y27928688D01*
X-6442851Y27813594D01*
X-6442855Y27813587D01*
X-6493097Y27678880D01*
X-6493099Y27678873D01*
X-6499500Y27619345D01*
X-6499500Y27250000D01*
X-4373750Y27250000D01*
X-4306711Y27230315D01*
X-4260956Y27177511D01*
X-4249750Y27126000D01*
X-4249750Y27000000D01*
X-4123750Y27000000D01*
X-4056711Y26980315D01*
X-4010956Y26927511D01*
X-3999750Y26876000D01*
X-3999750Y25928500D01*
X-2452172Y25928500D01*
X-2452161Y25928501D01*
X-2387758Y25935426D01*
X-2372351Y25932647D01*
X-2356853Y25934875D01*
X-2338669Y25926571D01*
X-2318998Y25923022D01*
X-2307540Y25912355D01*
X-2293297Y25905850D01*
X-2282490Y25889033D01*
X-2267860Y25875413D01*
X-2263483Y25859458D01*
X-2255523Y25847072D01*
X-2250500Y25812137D01*
X-2250500Y25671497D01*
X-2270185Y25604458D01*
X-2286819Y25583816D01*
X-2937950Y24932686D01*
X-2937956Y24932678D01*
X-2987188Y24858998D01*
X-2987187Y24858997D01*
X-3020079Y24809770D01*
X-3020086Y24809758D01*
X-3076658Y24673180D01*
X-3076660Y24673174D01*
X-3105500Y24528187D01*
X-3105500Y23302500D01*
X-3125185Y23235461D01*
X-3177989Y23189706D01*
X-3229500Y23178500D01*
X-3851001Y23178500D01*
X-3918040Y23198185D01*
X-3963795Y23250989D01*
X-3975001Y23302500D01*
X-3975001Y23428371D01*
X-3975002Y23428377D01*
X-3975074Y23429045D01*
X-3981409Y23487983D01*
X-3991597Y23515298D01*
X-4031703Y23622829D01*
X-4031707Y23622836D01*
X-4117953Y23738045D01*
X-4117956Y23738048D01*
X-4233165Y23824294D01*
X-4233172Y23824298D01*
X-4368018Y23874592D01*
X-4368017Y23874592D01*
X-4427617Y23880999D01*
X-4427619Y23881000D01*
X-4427627Y23881000D01*
X-4427635Y23881000D01*
X-6349031Y23881000D01*
X-6368428Y23882527D01*
X-6381990Y23884675D01*
X-6481903Y23900500D01*
X-6481908Y23900500D01*
X-6718092Y23900500D01*
X-6718096Y23900500D01*
X-6818474Y23884602D01*
X-6831575Y23882527D01*
X-6850971Y23881000D01*
X-8714371Y23881000D01*
X-8714377Y23880999D01*
X-8773982Y23874592D01*
X-8814384Y23859523D01*
X-8884076Y23854540D01*
X-8901048Y23859524D01*
X-8940120Y23874097D01*
X-8940128Y23874099D01*
X-8999656Y23880500D01*
X-10893000Y23880500D01*
X-10893000Y22888968D01*
X-10934174Y22900000D01*
X-11065826Y22900000D01*
X-11192993Y22865925D01*
X-11307007Y22800099D01*
X-11393000Y22714106D01*
X-11393000Y23880500D01*
X-12995001Y23880500D01*
X-13062040Y23900185D01*
X-13107795Y23952989D01*
X-13119001Y24004500D01*
X-13119001Y25714371D01*
X-13119002Y25714377D01*
X-13119003Y25714384D01*
X-13125409Y25773983D01*
X-13125410Y25773985D01*
X-13175703Y25908829D01*
X-13175707Y25908836D01*
X-13261953Y26024045D01*
X-13261956Y26024048D01*
X-13377165Y26110294D01*
X-13377172Y26110298D01*
X-13443440Y26135014D01*
X-13499374Y26176885D01*
X-13523791Y26242350D01*
X-13516289Y26294529D01*
X-13506409Y26321017D01*
X-13500000Y26380627D01*
X-13500000Y26380656D01*
X-6499500Y26380656D01*
X-6493099Y26321128D01*
X-6493097Y26321121D01*
X-6442855Y26186414D01*
X-6442851Y26186407D01*
X-6356691Y26071313D01*
X-6356688Y26071310D01*
X-6241594Y25985150D01*
X-6241587Y25985146D01*
X-6106880Y25934904D01*
X-6106873Y25934902D01*
X-6047345Y25928501D01*
X-6047328Y25928500D01*
X-4499750Y25928500D01*
X-4499750Y26750000D01*
X-6499500Y26750000D01*
X-6499500Y26380656D01*
X-13500000Y26380656D01*
X-13500001Y27000000D01*
X-13500001Y27619371D01*
X-13500002Y27619377D01*
X-13506409Y27678984D01*
X-13556703Y27813829D01*
X-13556707Y27813836D01*
X-13642953Y27929045D01*
X-13642956Y27929048D01*
X-13758165Y28015294D01*
X-13758174Y28015299D01*
X-13789060Y28026818D01*
X-13844994Y28068688D01*
X-13869412Y28134152D01*
X-13854561Y28202425D01*
X-13805156Y28251831D01*
X-13789060Y28259182D01*
X-13758174Y28270702D01*
X-13758174Y28270703D01*
X-13758169Y28270704D01*
X-13642954Y28356954D01*
X-13556704Y28472169D01*
X-13506409Y28607017D01*
X-13500000Y28666627D01*
X-13500001Y29905372D01*
X-13506409Y29964983D01*
X-13556704Y30099831D01*
X-13556705Y30099832D01*
X-13556707Y30099836D01*
X-13642953Y30215045D01*
X-13642956Y30215048D01*
X-13758165Y30301294D01*
X-13758174Y30301299D01*
X-13789060Y30312818D01*
X-13844994Y30354688D01*
X-13869412Y30420152D01*
X-13854561Y30488425D01*
X-13805156Y30537831D01*
X-13789060Y30545182D01*
X-13758174Y30556702D01*
X-13758174Y30556703D01*
X-13758169Y30556704D01*
X-13642954Y30642954D01*
X-13556704Y30758169D01*
X-13545182Y30789060D01*
X-13503312Y30844994D01*
X-13437848Y30869412D01*
X-13369575Y30854561D01*
X-13320169Y30805156D01*
X-13312818Y30789060D01*
X-13301299Y30758174D01*
X-13301294Y30758165D01*
X-13215048Y30642956D01*
X-13215045Y30642953D01*
X-13099836Y30556707D01*
X-13099829Y30556703D01*
X-12964983Y30506409D01*
X-12964984Y30506409D01*
X-12958056Y30505665D01*
X-12905373Y30500000D01*
X-11666628Y30500001D01*
X-11607017Y30506409D01*
X-11472169Y30556704D01*
X-11356954Y30642954D01*
X-11270704Y30758169D01*
X-11258915Y30789776D01*
X-11217046Y30845708D01*
X-11151583Y30870126D01*
X-11083309Y30855275D01*
X-11033903Y30805871D01*
X-11026553Y30789776D01*
X-11014857Y30758419D01*
X-11014851Y30758407D01*
X-10928691Y30643313D01*
X-10928688Y30643310D01*
X-10813594Y30557150D01*
X-10813587Y30557146D01*
X-10678880Y30506904D01*
X-10678873Y30506902D01*
X-10619345Y30500501D01*
X-10619328Y30500500D01*
X-10250000Y30500500D01*
X-10250000Y35000000D01*
X-10619345Y35000000D01*
X-10678873Y34993599D01*
X-10678880Y34993597D01*
X-10813587Y34943355D01*
X-10813594Y34943351D01*
X-10928688Y34857191D01*
X-10928691Y34857188D01*
X-11014851Y34742094D01*
X-11014856Y34742084D01*
X-11026553Y34710724D01*
X-11068425Y34654791D01*
X-11133890Y34630375D01*
X-11202163Y34645228D01*
X-11251567Y34694634D01*
X-11258916Y34710727D01*
X-11270702Y34742327D01*
X-11270707Y34742336D01*
X-11356953Y34857545D01*
X-11356956Y34857548D01*
X-11472165Y34943794D01*
X-11472172Y34943798D01*
X-11607018Y34994092D01*
X-11607017Y34994092D01*
X-11666617Y35000499D01*
X-11666619Y35000500D01*
X-11666627Y35000500D01*
X-11666636Y35000500D01*
X-12905371Y35000500D01*
X-12905377Y35000499D01*
X-12964984Y34994092D01*
X-13099829Y34943798D01*
X-13099836Y34943794D01*
X-13215045Y34857548D01*
X-13215048Y34857545D01*
X-13301294Y34742336D01*
X-13301298Y34742329D01*
X-13351592Y34607483D01*
X-13357999Y34547884D01*
X-13357999Y34547877D01*
X-13358000Y34547865D01*
X-13358000Y32492953D01*
X-13377685Y32425914D01*
X-13430489Y32380159D01*
X-13499647Y32370215D01*
X-13563203Y32399240D01*
X-13581266Y32418641D01*
X-13642954Y32501046D01*
X-13665791Y32518142D01*
X-13758165Y32587294D01*
X-13758172Y32587298D01*
X-13893018Y32637592D01*
X-13893017Y32637592D01*
X-13952617Y32643999D01*
X-13952619Y32644000D01*
X-13952627Y32644000D01*
X-13952635Y32644000D01*
X-14750500Y32644000D01*
X-14817539Y32663685D01*
X-14863294Y32716489D01*
X-14874500Y32768000D01*
X-14874500Y34140519D01*
X-14854815Y34207558D01*
X-14815596Y34246058D01*
X-14814705Y34246608D01*
X-14801650Y34254660D01*
X-14679660Y34376650D01*
X-14589092Y34523484D01*
X-14534826Y34687247D01*
X-14524500Y34788323D01*
X-14524501Y35386676D01*
X-14534826Y35487753D01*
X-14589092Y35651516D01*
X-14679660Y35798350D01*
X-14793983Y35912673D01*
X-14827468Y35973996D01*
X-14822484Y36043688D01*
X-14793983Y36088036D01*
X-14680052Y36201967D01*
X-14589552Y36348689D01*
X-14589547Y36348700D01*
X-14535320Y36512348D01*
X-14525001Y36613346D01*
X-14525000Y36613359D01*
X-14525000Y36662500D01*
X-16474999Y36662500D01*
X-16474999Y36613346D01*
X-16464681Y36512348D01*
X-16410454Y36348700D01*
X-16410449Y36348689D01*
X-16319948Y36201966D01*
X-16319945Y36201962D01*
X-16206018Y36088035D01*
X-16172533Y36026712D01*
X-16177517Y35957020D01*
X-16206017Y35912673D01*
X-16320341Y35798349D01*
X-16410907Y35651519D01*
X-16410908Y35651516D01*
X-16465174Y35487753D01*
X-16465174Y35487752D01*
X-16465175Y35487752D01*
X-16475500Y35386685D01*
X-16475500Y34788331D01*
X-16475499Y34788313D01*
X-16465175Y34687248D01*
X-16444713Y34625500D01*
X-16410908Y34523484D01*
X-16320340Y34376650D01*
X-16198350Y34254660D01*
X-16186080Y34247092D01*
X-16184404Y34246058D01*
X-16137679Y34194110D01*
X-16125500Y34140519D01*
X-16125500Y32768000D01*
X-16145185Y32700961D01*
X-16197989Y32655206D01*
X-16249500Y32644000D01*
X-17547871Y32644000D01*
X-17547877Y32643999D01*
X-17607484Y32637592D01*
X-17742329Y32587298D01*
X-17742336Y32587294D01*
X-17857545Y32501048D01*
X-17857548Y32501045D01*
X-17943794Y32385836D01*
X-17943798Y32385829D01*
X-17994092Y32250983D01*
X-18000499Y32191384D01*
X-18000500Y32191365D01*
X-18000500Y30952630D01*
X-18000499Y30952624D01*
X-17994092Y30893017D01*
X-17943798Y30758172D01*
X-17943794Y30758165D01*
X-17857548Y30642956D01*
X-17857545Y30642953D01*
X-17742336Y30556707D01*
X-17742329Y30556703D01*
X-17711440Y30545182D01*
X-17655506Y30503311D01*
X-17631089Y30437847D01*
X-17645941Y30369574D01*
X-17695346Y30320168D01*
X-17711440Y30312818D01*
X-17742329Y30301298D01*
X-17742336Y30301294D01*
X-17857545Y30215048D01*
X-17857548Y30215045D01*
X-17943794Y30099836D01*
X-17943798Y30099829D01*
X-17994092Y29964983D01*
X-18000499Y29905384D01*
X-18000499Y29905377D01*
X-18000500Y29905365D01*
X-18000500Y28666630D01*
X-18000499Y28666624D01*
X-17994092Y28607017D01*
X-17943798Y28472172D01*
X-17943794Y28472165D01*
X-17857548Y28356956D01*
X-17857545Y28356953D01*
X-17742336Y28270707D01*
X-17742329Y28270703D01*
X-17711440Y28259182D01*
X-17655506Y28217311D01*
X-17631089Y28151847D01*
X-17645941Y28083574D01*
X-17695346Y28034168D01*
X-17711440Y28026818D01*
X-17742329Y28015298D01*
X-17742336Y28015294D01*
X-17857545Y27929048D01*
X-17857548Y27929045D01*
X-17949112Y27806731D01*
X-17950456Y27807737D01*
X-17992521Y27765669D01*
X-18051950Y27750500D01*
X-18519259Y27750500D01*
X-18525913Y27752454D01*
X-18532738Y27751235D01*
X-18559005Y27762171D01*
X-18586298Y27770185D01*
X-18592384Y27776068D01*
X-18597241Y27778090D01*
X-18612992Y27795988D01*
X-18621244Y27803965D01*
X-18623083Y27806623D01*
X-18679660Y27898350D01*
X-18701914Y27920604D01*
X-18708287Y27929819D01*
X-18715882Y27952778D01*
X-18727468Y27973996D01*
X-18726657Y27985348D01*
X-18730231Y27996154D01*
X-18724209Y28019570D01*
X-18722484Y28043688D01*
X-18715019Y28055304D01*
X-18712828Y28063821D01*
X-18704697Y28071365D01*
X-18693979Y28088040D01*
X-18680053Y28101965D01*
X-18589552Y28248689D01*
X-18589547Y28248700D01*
X-18535320Y28412348D01*
X-18525001Y28513346D01*
X-18525000Y28513359D01*
X-18525000Y28612500D01*
X-20474999Y28612500D01*
X-20474999Y28513346D01*
X-20464681Y28412348D01*
X-20410454Y28248700D01*
X-20410449Y28248689D01*
X-20319948Y28101966D01*
X-20319945Y28101962D01*
X-20306018Y28088035D01*
X-20272533Y28026712D01*
X-20277517Y27957020D01*
X-20306016Y27912675D01*
X-20320339Y27898352D01*
X-20410907Y27751519D01*
X-20410908Y27751516D01*
X-20465174Y27587753D01*
X-20465174Y27587752D01*
X-20465175Y27587752D01*
X-20475500Y27486685D01*
X-20475500Y26788331D01*
X-20475499Y26788313D01*
X-20465175Y26687248D01*
X-20428891Y26577751D01*
X-20410908Y26523484D01*
X-20320340Y26376650D01*
X-20198350Y26254660D01*
X-20051516Y26164092D01*
X-19887753Y26109826D01*
X-19786677Y26099500D01*
X-19213324Y26099501D01*
X-19213316Y26099502D01*
X-19213313Y26099502D01*
X-19157970Y26105156D01*
X-19112247Y26109826D01*
X-18948484Y26164092D01*
X-18839946Y26231040D01*
X-18774849Y26249500D01*
X-18051950Y26249500D01*
X-17984911Y26229815D01*
X-17950158Y26192487D01*
X-17949112Y26193269D01*
X-17857548Y26070956D01*
X-17857545Y26070953D01*
X-17742336Y25984707D01*
X-17742329Y25984703D01*
X-17607483Y25934409D01*
X-17607484Y25934409D01*
X-17600556Y25933665D01*
X-17547873Y25928000D01*
X-16138913Y25928001D01*
X-16071874Y25908316D01*
X-16026119Y25855513D01*
X-16016175Y25786354D01*
X-16018235Y25775492D01*
X-16018592Y25773985D01*
X-16024999Y25714384D01*
X-16024999Y25714377D01*
X-16025000Y25714365D01*
X-16025000Y23900898D01*
X-16026142Y23884109D01*
X-16026321Y23882802D01*
X-16053000Y23714354D01*
X-16053000Y23687568D01*
X-16054142Y23679211D01*
X-16065123Y23654715D01*
X-16072685Y23628961D01*
X-16079197Y23623319D01*
X-16082722Y23615454D01*
X-16105206Y23600783D01*
X-16125489Y23583206D01*
X-16135465Y23581036D01*
X-16141235Y23577270D01*
X-16153159Y23577187D01*
X-16177000Y23572000D01*
X-17547871Y23572000D01*
X-17547877Y23571999D01*
X-17607484Y23565592D01*
X-17742329Y23515298D01*
X-17742336Y23515294D01*
X-17857545Y23429048D01*
X-17857548Y23429045D01*
X-17943794Y23313836D01*
X-17943798Y23313829D01*
X-17994092Y23178983D01*
X-18000499Y23119384D01*
X-18000500Y23119365D01*
X-18000500Y21880630D01*
X-18000499Y21880624D01*
X-17994092Y21821017D01*
X-17943798Y21686172D01*
X-17943794Y21686165D01*
X-17857548Y21570956D01*
X-17857545Y21570953D01*
X-17742336Y21484707D01*
X-17742329Y21484703D01*
X-17607483Y21434409D01*
X-17607484Y21434409D01*
X-17600556Y21433665D01*
X-17547873Y21428000D01*
X-16127059Y21428001D01*
X-16060020Y21408316D01*
X-16014265Y21355513D01*
X-16010877Y21347334D01*
X-15968298Y21233172D01*
X-15968294Y21233165D01*
X-15882048Y21117956D01*
X-15882045Y21117953D01*
X-15766836Y21031707D01*
X-15766829Y21031703D01*
X-15631983Y20981409D01*
X-15631984Y20981409D01*
X-15625056Y20980665D01*
X-15572373Y20975000D01*
X-13695500Y20975001D01*
X-13628461Y20955316D01*
X-13582706Y20902513D01*
X-13571500Y20851001D01*
X-13571500Y19702406D01*
X-13565099Y19642878D01*
X-13565097Y19642871D01*
X-13514855Y19508164D01*
X-13514851Y19508157D01*
X-13428691Y19393063D01*
X-13428688Y19393060D01*
X-13313594Y19306900D01*
X-13313587Y19306896D01*
X-13178880Y19256654D01*
X-13178873Y19256652D01*
X-13119345Y19250251D01*
X-13119328Y19250250D01*
X-12535750Y19250250D01*
X-12035750Y19250250D01*
X-11452172Y19250250D01*
X-11452156Y19250251D01*
X-11392628Y19256652D01*
X-11392624Y19256653D01*
X-11293334Y19293686D01*
X-11223642Y19298670D01*
X-11206666Y19293686D01*
X-11107377Y19256653D01*
X-11107373Y19256652D01*
X-11047845Y19250251D01*
X-11047828Y19250250D01*
X-10250000Y19250250D01*
X-10250000Y21250000D01*
X-12035750Y21250000D01*
X-12035750Y19250250D01*
X-12535750Y19250250D01*
X-12535750Y21376000D01*
X-12516065Y21443039D01*
X-12463261Y21488794D01*
X-12411750Y21500000D01*
X-12285750Y21500000D01*
X-12285750Y21626000D01*
X-12266065Y21693039D01*
X-12213261Y21738794D01*
X-12161750Y21750000D01*
X-10124000Y21750000D01*
X-10056961Y21730315D01*
X-10011206Y21677511D01*
X-10000000Y21626000D01*
X-10000000Y21500000D01*
X-9874000Y21500000D01*
X-9806961Y21480315D01*
X-9761206Y21427511D01*
X-9750000Y21376000D01*
X-9750000Y19250250D01*
X-8952172Y19250250D01*
X-8952156Y19250251D01*
X-8892628Y19256652D01*
X-8892621Y19256654D01*
X-8757914Y19306896D01*
X-8757907Y19306900D01*
X-8642813Y19393060D01*
X-8642812Y19393061D01*
X-8599580Y19450811D01*
X-8543647Y19492683D01*
X-8473955Y19497667D01*
X-8412632Y19464182D01*
X-8401047Y19450813D01*
X-8370749Y19410341D01*
X-8357813Y19393060D01*
X-8357545Y19392703D01*
X-8242336Y19306457D01*
X-8242331Y19306454D01*
X-8181167Y19283642D01*
X-8163442Y19270373D01*
X-8143297Y19261173D01*
X-8136016Y19249843D01*
X-8125234Y19241772D01*
X-8117496Y19221024D01*
X-8105523Y19202395D01*
X-8102372Y19180480D01*
X-8100816Y19176308D01*
X-8100500Y19167460D01*
X-8100500Y19109193D01*
X-8120185Y19042154D01*
X-8172989Y18996399D01*
X-8205102Y18986720D01*
X-8351370Y18963554D01*
X-8526749Y18906569D01*
X-8565067Y18900500D01*
X-9550002Y18900500D01*
X-9550020Y18900499D01*
X-9652797Y18890000D01*
X-9652800Y18889999D01*
X-9819332Y18834815D01*
X-9819337Y18834813D01*
X-9968658Y18742711D01*
X-10092711Y18618658D01*
X-10184813Y18469337D01*
X-10184815Y18469332D01*
X-10184885Y18469120D01*
X-10239999Y18302797D01*
X-10239999Y18302796D01*
X-10240000Y18302796D01*
X-10250500Y18200017D01*
X-10250500Y16799999D01*
X-10250499Y16799982D01*
X-10240000Y16697204D01*
X-10239999Y16697201D01*
X-10184885Y16530881D01*
X-10184814Y16530666D01*
X-10092904Y16381655D01*
X-10092711Y16381343D01*
X-10091879Y16380511D01*
X-10091491Y16379799D01*
X-10088234Y16375681D01*
X-10088938Y16375125D01*
X-10058394Y16319188D01*
X-10063378Y16249496D01*
X-10091878Y16205150D01*
X-10144516Y16152512D01*
X-10283341Y15961438D01*
X-10283342Y15961436D01*
X-10323863Y15881908D01*
X-10390567Y15750997D01*
X-10463554Y15526369D01*
X-10500500Y15293098D01*
X-10500500Y15233551D01*
X-10520185Y15166512D01*
X-10536819Y15145870D01*
X-10695642Y14987048D01*
X-10695648Y14987041D01*
X-10875239Y14752994D01*
X-11022742Y14497511D01*
X-11022746Y14497501D01*
X-11135636Y14224962D01*
X-11135639Y14224952D01*
X-11211992Y13939996D01*
X-11211994Y13939985D01*
X-11250500Y13647514D01*
X-11250500Y13352487D01*
X-11233438Y13222895D01*
X-11211993Y13060007D01*
X-11135639Y12775049D01*
X-11135636Y12775039D01*
X-11022746Y12502500D01*
X-11022742Y12502490D01*
X-10875239Y12247007D01*
X-10695648Y12012960D01*
X-10695642Y12012953D01*
X-10487048Y11804359D01*
X-10487041Y11804353D01*
X-10252994Y11624762D01*
X-9997511Y11477259D01*
X-9997510Y11477259D01*
X-9997507Y11477257D01*
X-9724952Y11364361D01*
X-9439993Y11288007D01*
X-9161585Y11251354D01*
X-9151312Y11250001D01*
X-9147506Y11249500D01*
X-9147499Y11249500D01*
X-8852501Y11249500D01*
X-8852494Y11249500D01*
X-8560007Y11288007D01*
X-8275048Y11364361D01*
X-8002493Y11477257D01*
X-7747006Y11624762D01*
X-7512958Y11804354D01*
X-7304354Y12012958D01*
X-7124762Y12247006D01*
X-6977257Y12502493D01*
X-6864361Y12775048D01*
X-6788007Y13060007D01*
X-6749500Y13352494D01*
X-6749500Y13647506D01*
X-6788007Y13939993D01*
X-6864361Y14224952D01*
X-6977257Y14497507D01*
X-7077269Y14670733D01*
X-7093741Y14738631D01*
X-7070888Y14804658D01*
X-7057575Y14820399D01*
X-6855482Y15022490D01*
X-6716657Y15213567D01*
X-6609432Y15424008D01*
X-6609235Y15424616D01*
X-6609067Y15424890D01*
X-6607568Y15428508D01*
X-6606996Y15428271D01*
X-6578982Y15473992D01*
X-5455482Y16597490D01*
X-5316657Y16788567D01*
X-5209432Y16999008D01*
X-5136447Y17223632D01*
X-5132271Y17250000D01*
X-5099500Y17456904D01*
X-5099500Y18575014D01*
X-2724999Y18575014D01*
X-2714506Y18472303D01*
X-2659359Y18305881D01*
X-2659357Y18305876D01*
X-2567316Y18156655D01*
X-2443346Y18032685D01*
X-2294125Y17940644D01*
X-2294120Y17940642D01*
X-2127698Y17885495D01*
X-2127691Y17885494D01*
X-2024981Y17875001D01*
X-1750001Y17875001D01*
X-1750000Y17875002D01*
X-1750000Y18712500D01*
X-2724999Y18712500D01*
X-2724999Y18575014D01*
X-5099500Y18575014D01*
X-5099500Y20851001D01*
X-5079815Y20918040D01*
X-5027011Y20963795D01*
X-4975500Y20975001D01*
X-4427629Y20975001D01*
X-4427628Y20975001D01*
X-4368017Y20981409D01*
X-4233169Y21031704D01*
X-4117954Y21117954D01*
X-4031704Y21233169D01*
X-3981409Y21368017D01*
X-3975000Y21427627D01*
X-3975000Y21553500D01*
X-3955315Y21620539D01*
X-3902511Y21666294D01*
X-3851000Y21677500D01*
X-2836306Y21677500D01*
X-2769267Y21657815D01*
X-2723512Y21605011D01*
X-2713568Y21535853D01*
X-2714988Y21527914D01*
X-2725500Y21425017D01*
X-2725500Y20649999D01*
X-2725499Y20649981D01*
X-2715000Y20547204D01*
X-2714999Y20547201D01*
X-2659815Y20380669D01*
X-2659814Y20380666D01*
X-2567712Y20231344D01*
X-2443656Y20107288D01*
X-2440372Y20105263D01*
X-2440347Y20105247D01*
X-2438555Y20103254D01*
X-2437989Y20102807D01*
X-2438066Y20102711D01*
X-2393621Y20053301D01*
X-2382397Y19984339D01*
X-2410239Y19920256D01*
X-2440335Y19894174D01*
X-2443340Y19892321D01*
X-2443345Y19892317D01*
X-2567316Y19768346D01*
X-2659357Y19619125D01*
X-2659359Y19619120D01*
X-2714506Y19452698D01*
X-2714507Y19452691D01*
X-2725000Y19349987D01*
X-2725000Y19212500D01*
X-1624000Y19212500D01*
X-1556961Y19192815D01*
X-1511206Y19140011D01*
X-1500000Y19088500D01*
X-1500000Y18962500D01*
X-1374000Y18962500D01*
X-1306961Y18942815D01*
X-1261206Y18890011D01*
X-1250000Y18838500D01*
X-1250000Y17875001D01*
X-975028Y17875001D01*
X-975014Y17875002D01*
X-872303Y17885495D01*
X-705881Y17940642D01*
X-705874Y17940645D01*
X-689598Y17950684D01*
X-622206Y17969125D01*
X-555542Y17948203D01*
X-510772Y17894562D01*
X-500500Y17845146D01*
X-500500Y3748463D01*
X-520185Y3681424D01*
X-572989Y3635669D01*
X-642147Y3625725D01*
X-699986Y3650087D01*
X-830517Y3750246D01*
X-830518Y3750247D01*
X-830521Y3750249D01*
X-925593Y3805139D01*
X-1068972Y3887920D01*
X-1068983Y3887925D01*
X-1323370Y3993296D01*
X-1456351Y4028928D01*
X-1589334Y4064560D01*
X-1589340Y4064561D01*
X-1589345Y4064562D01*
X-1862316Y4100499D01*
X-1862321Y4100500D01*
X-1862326Y4100500D01*
X-2137674Y4100500D01*
X-2137680Y4100500D01*
X-2137685Y4100499D01*
X-2410656Y4064562D01*
X-2410663Y4064561D01*
X-2410666Y4064560D01*
X-2466875Y4049500D01*
X-2676631Y3993296D01*
X-2931018Y3887925D01*
X-2931029Y3887920D01*
X-3169484Y3750246D01*
X-3387927Y3582630D01*
X-3387934Y3582624D01*
X-3582624Y3387934D01*
X-3582630Y3387927D01*
X-3750246Y3169484D01*
X-3887920Y2931029D01*
X-3887925Y2931018D01*
X-3993296Y2676631D01*
X-4064559Y2410669D01*
X-4064562Y2410656D01*
X-4100499Y2137685D01*
X-4100500Y2137668D01*
X-4100500Y1862333D01*
X-4100499Y1862316D01*
X-4064562Y1589345D01*
X-4064561Y1589340D01*
X-4064560Y1589334D01*
X-4064559Y1589332D01*
X-3993296Y1323370D01*
X-3887925Y1068983D01*
X-3887920Y1068972D01*
X-3831867Y971887D01*
X-3750249Y830521D01*
X-3750247Y830518D01*
X-3750246Y830517D01*
X-3650087Y699986D01*
X-3624893Y634817D01*
X-3638932Y566372D01*
X-3687746Y516382D01*
X-3748463Y500500D01*
X-20875500Y500500D01*
X-20942539Y520185D01*
X-20988294Y572989D01*
X-20999500Y624500D01*
X-20999500Y3594487D01*
X-18200500Y3594487D01*
X-18200500Y3405514D01*
X-18170941Y3218882D01*
X-18112546Y3039164D01*
X-18100644Y3015806D01*
X-18026760Y2870801D01*
X-17915690Y2717927D01*
X-17782073Y2584310D01*
X-17629199Y2473240D01*
X-17549653Y2432710D01*
X-17460837Y2387455D01*
X-17460835Y2387455D01*
X-17460832Y2387453D01*
X-17364503Y2356154D01*
X-17281119Y2329060D01*
X-17094486Y2299500D01*
X-17094481Y2299500D01*
X-16905514Y2299500D01*
X-16718882Y2329060D01*
X-16539168Y2387453D01*
X-16370801Y2473240D01*
X-16217927Y2584310D01*
X-16084310Y2717927D01*
X-15973240Y2870801D01*
X-15887453Y3039168D01*
X-15829060Y3218882D01*
X-15802286Y3387927D01*
X-15799500Y3405514D01*
X-15799500Y3594487D01*
X-7200500Y3594487D01*
X-7200500Y3405514D01*
X-7170941Y3218882D01*
X-7112546Y3039164D01*
X-7100644Y3015806D01*
X-7026760Y2870801D01*
X-6915690Y2717927D01*
X-6782073Y2584310D01*
X-6629199Y2473240D01*
X-6549653Y2432710D01*
X-6460837Y2387455D01*
X-6460835Y2387455D01*
X-6460832Y2387453D01*
X-6364503Y2356154D01*
X-6281119Y2329060D01*
X-6094486Y2299500D01*
X-6094481Y2299500D01*
X-5905514Y2299500D01*
X-5718882Y2329060D01*
X-5539168Y2387453D01*
X-5370801Y2473240D01*
X-5217927Y2584310D01*
X-5084310Y2717927D01*
X-4973240Y2870801D01*
X-4887453Y3039168D01*
X-4829060Y3218882D01*
X-4802286Y3387927D01*
X-4799500Y3405514D01*
X-4799500Y3594487D01*
X-4829060Y3781119D01*
X-4887455Y3960837D01*
X-4973241Y4129200D01*
X-5084310Y4282073D01*
X-5217927Y4415690D01*
X-5370801Y4526760D01*
X-5539164Y4612546D01*
X-5718882Y4670941D01*
X-5905514Y4700500D01*
X-5905519Y4700500D01*
X-6094481Y4700500D01*
X-6094486Y4700500D01*
X-6281119Y4670941D01*
X-6460837Y4612546D01*
X-6629200Y4526760D01*
X-6716421Y4463390D01*
X-6782073Y4415690D01*
X-6782075Y4415688D01*
X-6782076Y4415688D01*
X-6915688Y4282076D01*
X-6915688Y4282075D01*
X-6915690Y4282073D01*
X-6963390Y4216421D01*
X-7026760Y4129200D01*
X-7112546Y3960837D01*
X-7170941Y3781119D01*
X-7200500Y3594487D01*
X-15799500Y3594487D01*
X-15829060Y3781119D01*
X-15887455Y3960837D01*
X-15973241Y4129200D01*
X-16084310Y4282073D01*
X-16217927Y4415690D01*
X-16370801Y4526760D01*
X-16539164Y4612546D01*
X-16718882Y4670941D01*
X-16905514Y4700500D01*
X-16905519Y4700500D01*
X-17094481Y4700500D01*
X-17094486Y4700500D01*
X-17281119Y4670941D01*
X-17460837Y4612546D01*
X-17629200Y4526760D01*
X-17716421Y4463390D01*
X-17782073Y4415690D01*
X-17782075Y4415688D01*
X-17782076Y4415688D01*
X-17915688Y4282076D01*
X-17915688Y4282075D01*
X-17915690Y4282073D01*
X-17963390Y4216421D01*
X-18026760Y4129200D01*
X-18112546Y3960837D01*
X-18170941Y3781119D01*
X-18200500Y3594487D01*
X-20999500Y3594487D01*
X-20999500Y14545227D01*
X-16250000Y14545227D01*
X-16250000Y13750000D01*
X-14918884Y13750000D01*
X-14950000Y13593567D01*
X-14950000Y13406433D01*
X-14918884Y13250000D01*
X-16249999Y13250000D01*
X-16249999Y12454773D01*
X-16239434Y12320526D01*
X-16183577Y12098848D01*
X-16089038Y11890713D01*
X-16089033Y11890704D01*
X-15958849Y11702797D01*
X-15797204Y11541152D01*
X-15609297Y11410968D01*
X-15609288Y11410963D01*
X-15401153Y11316424D01*
X-15179475Y11260567D01*
X-15045220Y11250001D01*
X-14250001Y11250001D01*
X-14250000Y11250002D01*
X-14250000Y12581117D01*
X-14093567Y12550000D01*
X-13906433Y12550000D01*
X-13750000Y12581117D01*
X-13750000Y11250001D01*
X-12954788Y11250001D01*
X-12954773Y11250002D01*
X-12820526Y11260567D01*
X-12598848Y11316424D01*
X-12390713Y11410963D01*
X-12390704Y11410968D01*
X-12202797Y11541152D01*
X-12041152Y11702797D01*
X-11910968Y11890704D01*
X-11910963Y11890713D01*
X-11816424Y12098848D01*
X-11760567Y12320526D01*
X-11750001Y12454774D01*
X-11750000Y12454787D01*
X-11750000Y13250000D01*
X-13081116Y13250000D01*
X-13050000Y13406433D01*
X-13050000Y13593567D01*
X-13081116Y13750000D01*
X-11750001Y13750000D01*
X-11750001Y14545213D01*
X-11750002Y14545228D01*
X-11760567Y14679475D01*
X-11816424Y14901153D01*
X-11910963Y15109288D01*
X-11910968Y15109297D01*
X-12041152Y15297204D01*
X-12202797Y15458849D01*
X-12390704Y15589033D01*
X-12390713Y15589038D01*
X-12598848Y15683577D01*
X-12820526Y15739434D01*
X-12954774Y15750000D01*
X-13750000Y15750000D01*
X-13750000Y14418884D01*
X-13906433Y14450000D01*
X-14093567Y14450000D01*
X-14250000Y14418884D01*
X-14250000Y15750000D01*
X-15045213Y15750000D01*
X-15045228Y15749999D01*
X-15179475Y15739434D01*
X-15401153Y15683577D01*
X-15609288Y15589038D01*
X-15609297Y15589033D01*
X-15797204Y15458849D01*
X-15958849Y15297204D01*
X-16089033Y15109297D01*
X-16089038Y15109288D01*
X-16183577Y14901153D01*
X-16239434Y14679475D01*
X-16250000Y14545227D01*
X-20999500Y14545227D01*
X-20999500Y16800014D01*
X-15249999Y16800014D01*
X-15239506Y16697303D01*
X-15184359Y16530881D01*
X-15184357Y16530876D01*
X-15092316Y16381655D01*
X-14968346Y16257685D01*
X-14819125Y16165644D01*
X-14819120Y16165642D01*
X-14652698Y16110495D01*
X-14652691Y16110494D01*
X-14549981Y16100001D01*
X-13250001Y16100001D01*
X-12750000Y16100001D01*
X-11450028Y16100001D01*
X-11450014Y16100002D01*
X-11347303Y16110495D01*
X-11180881Y16165642D01*
X-11180876Y16165644D01*
X-11031655Y16257685D01*
X-10907685Y16381655D01*
X-10815644Y16530876D01*
X-10815642Y16530881D01*
X-10760495Y16697303D01*
X-10760494Y16697310D01*
X-10750001Y16800014D01*
X-10750000Y16800027D01*
X-10750000Y17250000D01*
X-12750000Y17250000D01*
X-12750000Y16100001D01*
X-13250001Y16100001D01*
X-13250000Y16100002D01*
X-13250000Y17250000D01*
X-15249999Y17250000D01*
X-15249999Y16800014D01*
X-20999500Y16800014D01*
X-20999500Y18199987D01*
X-15250000Y18199987D01*
X-15250000Y17750000D01*
X-13250000Y17750000D01*
X-12750000Y17750000D01*
X-10750001Y17750000D01*
X-10750001Y18199972D01*
X-10750002Y18199987D01*
X-10760495Y18302698D01*
X-10815642Y18469120D01*
X-10815644Y18469125D01*
X-10907685Y18618346D01*
X-11031655Y18742316D01*
X-11180876Y18834357D01*
X-11180881Y18834359D01*
X-11347303Y18889506D01*
X-11347310Y18889507D01*
X-11450014Y18900000D01*
X-12750000Y18900000D01*
X-12750000Y17750000D01*
X-13250000Y17750000D01*
X-13250000Y18900000D01*
X-14549972Y18900000D01*
X-14549988Y18899999D01*
X-14652698Y18889506D01*
X-14819120Y18834359D01*
X-14819125Y18834357D01*
X-14968346Y18742316D01*
X-15092316Y18618346D01*
X-15184357Y18469125D01*
X-15184359Y18469120D01*
X-15239506Y18302698D01*
X-15239507Y18302691D01*
X-15250000Y18199987D01*
X-20999500Y18199987D01*
X-20999500Y29211655D01*
X-20475000Y29211655D01*
X-20475000Y29112500D01*
X-19750000Y29112500D01*
X-19250000Y29112500D01*
X-18525001Y29112500D01*
X-18525001Y29211640D01*
X-18525002Y29211655D01*
X-18535320Y29312653D01*
X-18589547Y29476301D01*
X-18589552Y29476312D01*
X-18680053Y29623035D01*
X-18680056Y29623039D01*
X-18801962Y29744945D01*
X-18801966Y29744948D01*
X-18948689Y29835449D01*
X-18948700Y29835454D01*
X-19112348Y29889681D01*
X-19213346Y29900000D01*
X-19250000Y29900000D01*
X-19250000Y29112500D01*
X-19750000Y29112500D01*
X-19750000Y29900000D01*
X-19786639Y29900000D01*
X-19786657Y29899999D01*
X-19887653Y29889681D01*
X-20051301Y29835454D01*
X-20051312Y29835449D01*
X-20198035Y29744948D01*
X-20198039Y29744945D01*
X-20319945Y29623039D01*
X-20319948Y29623035D01*
X-20410449Y29476312D01*
X-20410454Y29476301D01*
X-20464681Y29312653D01*
X-20475000Y29211655D01*
X-20999500Y29211655D01*
X-20999500Y37211655D01*
X-16475000Y37211655D01*
X-16475000Y37162500D01*
X-15750000Y37162500D01*
X-15250000Y37162500D01*
X-14525001Y37162500D01*
X-14525001Y37211640D01*
X-14525002Y37211655D01*
X-14535320Y37312653D01*
X-14589547Y37476301D01*
X-14589552Y37476312D01*
X-14680053Y37623035D01*
X-14680056Y37623039D01*
X-14801962Y37744945D01*
X-14801966Y37744948D01*
X-14948689Y37835449D01*
X-14948700Y37835454D01*
X-15112348Y37889681D01*
X-15213346Y37900000D01*
X-15250000Y37900000D01*
X-15250000Y37162500D01*
X-15750000Y37162500D01*
X-15750000Y37900000D01*
X-15786639Y37900000D01*
X-15786657Y37899999D01*
X-15887653Y37889681D01*
X-16051301Y37835454D01*
X-16051312Y37835449D01*
X-16198035Y37744948D01*
X-16198039Y37744945D01*
X-16319945Y37623039D01*
X-16319948Y37623035D01*
X-16410449Y37476312D01*
X-16410454Y37476301D01*
X-16464681Y37312653D01*
X-16475000Y37211655D01*
X-20999500Y37211655D01*
X-20999500Y46087528D01*
X-20999500Y46087532D01*
X-21029899Y46259938D01*
X-21089775Y46424445D01*
X-21177308Y46576055D01*
X-21177309Y46576057D01*
X-21177310Y46576058D01*
X-21289837Y46710164D01*
X-21423943Y46822691D01*
X-21575554Y46910225D01*
X-21740063Y46970102D01*
X-21912466Y47000500D01*
X-21912468Y47000500D01*
X-21934108Y47000500D01*
X-40875500Y47000500D01*
X-40942539Y47020185D01*
X-40988294Y47072989D01*
X-40999500Y47124500D01*
X-40999500Y61026000D01*
X-40979815Y61093039D01*
X-40927011Y61138794D01*
X-40875500Y61150000D01*
X-40370000Y61150000D01*
X-40370000Y62066988D01*
X-40312993Y62034075D01*
X-40185826Y62000000D01*
X-40054174Y62000000D01*
X-39927007Y62034075D01*
X-39870000Y62066988D01*
X-39870000Y61150000D01*
G37*
%TD.AperFunction*%
%TA.AperFunction,Conductor*%
G36*
X-3681424Y64479815D02*
G01*
X-3635669Y64427011D01*
X-3625725Y64357853D01*
X-3650087Y64300014D01*
X-3750246Y64169484D01*
X-3887920Y63931029D01*
X-3887925Y63931018D01*
X-3993296Y63676631D01*
X-4064559Y63410669D01*
X-4064562Y63410656D01*
X-4100499Y63137685D01*
X-4100500Y63137668D01*
X-4100500Y62862333D01*
X-4100499Y62862316D01*
X-4064562Y62589345D01*
X-4064561Y62589340D01*
X-4064560Y62589334D01*
X-4064559Y62589332D01*
X-3993296Y62323370D01*
X-3887925Y62068983D01*
X-3887920Y62068972D01*
X-3837468Y61981588D01*
X-3750249Y61830521D01*
X-3750247Y61830518D01*
X-3750246Y61830517D01*
X-3582630Y61612074D01*
X-3582624Y61612067D01*
X-3387934Y61417377D01*
X-3387927Y61417371D01*
X-3300015Y61349914D01*
X-3169479Y61249751D01*
X-3045192Y61177994D01*
X-2931029Y61112081D01*
X-2931024Y61112079D01*
X-2931021Y61112077D01*
X-2676632Y61006705D01*
X-2410666Y60935440D01*
X-2137674Y60899500D01*
X-2137667Y60899500D01*
X-1862333Y60899500D01*
X-1862326Y60899500D01*
X-1589334Y60935440D01*
X-1323368Y61006705D01*
X-1068979Y61112077D01*
X-830521Y61249751D01*
X-699985Y61349915D01*
X-634817Y61375108D01*
X-566372Y61361070D01*
X-516383Y61312256D01*
X-500500Y61251538D01*
X-500500Y22155442D01*
X-520185Y22088403D01*
X-572989Y22042648D01*
X-642147Y22032704D01*
X-689594Y22049901D01*
X-696349Y22054068D01*
X-705666Y22059814D01*
X-705668Y22059815D01*
X-705673Y22059818D01*
X-709724Y22061707D01*
X-762163Y22107880D01*
X-775542Y22141394D01*
X-776573Y22141081D01*
X-778344Y22146918D01*
X-834914Y22283491D01*
X-834915Y22283493D01*
X-867814Y22332730D01*
X-867815Y22332732D01*
X-917044Y22406411D01*
X-917048Y22406416D01*
X-1568181Y23057549D01*
X-1601666Y23118872D01*
X-1604500Y23145230D01*
X-1604500Y24092037D01*
X-1584815Y24159076D01*
X-1568181Y24179718D01*
X-917048Y24830851D01*
X-889795Y24871639D01*
X-834916Y24953771D01*
X-808634Y25017222D01*
X-778341Y25090354D01*
X-749500Y25235349D01*
X-749500Y25383184D01*
X-749500Y35073918D01*
X-749500Y35073921D01*
X-778341Y35218908D01*
X-778342Y35218909D01*
X-778342Y35218913D01*
X-834916Y35355495D01*
X-867814Y35404730D01*
X-867815Y35404732D01*
X-917044Y35478411D01*
X-917048Y35478416D01*
X-1307043Y35868411D01*
X-1340528Y35929734D01*
X-1335544Y35999426D01*
X-1307047Y36043769D01*
X-1198034Y36152781D01*
X-1077713Y36318390D01*
X-984780Y36500781D01*
X-921523Y36695466D01*
X-889500Y36897648D01*
X-889500Y37102352D01*
X-921523Y37304534D01*
X-984780Y37499219D01*
X-984782Y37499222D01*
X-984782Y37499224D01*
X-1028402Y37584832D01*
X-1077713Y37681610D01*
X-1123730Y37744948D01*
X-1198029Y37847214D01*
X-1342787Y37991972D01*
X-1512331Y38115151D01*
X-1511116Y38116824D01*
X-1552169Y38162208D01*
X-1564500Y38216115D01*
X-1564500Y40047545D01*
X-1544815Y40114584D01*
X-1492011Y40160339D01*
X-1482790Y40163742D01*
X-1482795Y40163756D01*
X-1476960Y40166088D01*
X-1476959Y40166089D01*
X-1476951Y40166091D01*
X-1296593Y40260302D01*
X-1138891Y40388891D01*
X-1010302Y40546593D01*
X-916091Y40726951D01*
X-860114Y40922582D01*
X-849500Y41041963D01*
X-849501Y43958036D01*
X-860114Y44077418D01*
X-916091Y44273049D01*
X-1010302Y44453407D01*
X-1121310Y44589548D01*
X-1138891Y44611110D01*
X-1296591Y44739696D01*
X-1296590Y44739696D01*
X-1296593Y44739698D01*
X-1476951Y44833909D01*
X-1476952Y44833910D01*
X-1476955Y44833911D01*
X-1594171Y44867450D01*
X-1672582Y44889886D01*
X-1672585Y44889887D01*
X-1672587Y44889887D01*
X-1738898Y44895783D01*
X-1791963Y44900500D01*
X-1791968Y44900500D01*
X-2908029Y44900500D01*
X-2908035Y44900500D01*
X-2908036Y44900499D01*
X-2919684Y44899464D01*
X-3027416Y44889887D01*
X-3223046Y44833911D01*
X-3313228Y44786804D01*
X-3403407Y44739698D01*
X-3403409Y44739697D01*
X-3403410Y44739696D01*
X-3561110Y44611110D01*
X-3689696Y44453410D01*
X-3783910Y44273047D01*
X-3821131Y44142965D01*
X-3823808Y44138736D01*
X-3824165Y44133743D01*
X-3842308Y44109509D01*
X-3858499Y44083927D01*
X-3863038Y44081817D01*
X-3866037Y44077810D01*
X-3894401Y44067231D01*
X-3921853Y44054464D01*
X-3926812Y44055143D01*
X-3931501Y44053393D01*
X-3961079Y44059828D01*
X-3991078Y44063929D01*
X-3996218Y44067472D01*
X-3999774Y44068245D01*
X-4028028Y44089396D01*
X-4075681Y44137049D01*
X-4109166Y44198372D01*
X-4112000Y44224730D01*
X-4112000Y46094655D01*
X-4092315Y46161694D01*
X-4039511Y46207449D01*
X-3970353Y46217393D01*
X-3906797Y46188368D01*
X-3900319Y46182336D01*
X-3898039Y46180056D01*
X-3898035Y46180053D01*
X-3751312Y46089552D01*
X-3751301Y46089547D01*
X-3587653Y46035320D01*
X-3486649Y46025001D01*
X-2887500Y46025001D01*
X-2788360Y46025001D01*
X-2788346Y46025002D01*
X-2687348Y46035320D01*
X-2523700Y46089547D01*
X-2523689Y46089552D01*
X-2376966Y46180053D01*
X-2376962Y46180056D01*
X-2255056Y46301962D01*
X-2255053Y46301966D01*
X-2164552Y46448689D01*
X-2164547Y46448700D01*
X-2110320Y46612348D01*
X-2100001Y46713346D01*
X-2100000Y46713359D01*
X-2100000Y46750000D01*
X-2887500Y46750000D01*
X-2887500Y46025001D01*
X-3486649Y46025001D01*
X-3387500Y46025002D01*
X-3387500Y47250000D01*
X-2887500Y47250000D01*
X-2100001Y47250000D01*
X-2100001Y47286640D01*
X-2100002Y47286655D01*
X-2110320Y47387653D01*
X-2164547Y47551301D01*
X-2164552Y47551312D01*
X-2255053Y47698035D01*
X-2255056Y47698039D01*
X-2376962Y47819945D01*
X-2376966Y47819948D01*
X-2523689Y47910449D01*
X-2523700Y47910454D01*
X-2687348Y47964681D01*
X-2788346Y47975000D01*
X-2887500Y47975000D01*
X-2887500Y47250000D01*
X-3387500Y47250000D01*
X-3387500Y47999772D01*
X-3378856Y48029213D01*
X-3372332Y48059199D01*
X-3368578Y48064215D01*
X-3367815Y48066811D01*
X-3351188Y48087446D01*
X-2917048Y48521584D01*
X-2890307Y48561606D01*
X-2834916Y48644505D01*
X-2778341Y48781087D01*
X-2749500Y48926082D01*
X-2749500Y49073917D01*
X-2778341Y49218912D01*
X-2823333Y49327529D01*
X-2830801Y49396997D01*
X-2826477Y49413985D01*
X-2814813Y49449184D01*
X-2771419Y49580137D01*
X-2761093Y49681213D01*
X-2761094Y50254566D01*
X-2771419Y50355643D01*
X-2825685Y50519406D01*
X-2916253Y50666240D01*
X-2962274Y50712261D01*
X-2995759Y50773584D01*
X-2998593Y50799942D01*
X-2998593Y51135838D01*
X-2978908Y51202877D01*
X-2962274Y51223519D01*
X-2916253Y51269540D01*
X-2825685Y51416374D01*
X-2771419Y51580137D01*
X-2761093Y51681213D01*
X-2761094Y52254566D01*
X-2771419Y52355643D01*
X-2825685Y52519406D01*
X-2916253Y52666240D01*
X-2962274Y52712261D01*
X-2995759Y52773584D01*
X-2998593Y52799942D01*
X-2998593Y53135838D01*
X-2978908Y53202877D01*
X-2962274Y53223519D01*
X-2916253Y53269540D01*
X-2825685Y53416374D01*
X-2771419Y53580137D01*
X-2761093Y53681213D01*
X-2761094Y54254566D01*
X-2771419Y54355643D01*
X-2825685Y54519406D01*
X-2916253Y54666240D01*
X-3038243Y54788230D01*
X-3185077Y54878798D01*
X-3348840Y54933064D01*
X-3348842Y54933065D01*
X-3449915Y54943390D01*
X-4048263Y54943390D01*
X-4048281Y54943389D01*
X-4149346Y54933065D01*
X-4149350Y54933064D01*
X-4237736Y54903775D01*
X-4253195Y54903244D01*
X-4267675Y54897813D01*
X-4287398Y54902067D01*
X-4307565Y54901373D01*
X-4321834Y54909495D01*
X-4335974Y54912544D01*
X-4358418Y54929315D01*
X-4358945Y54928711D01*
X-4358961Y54928725D01*
X-4364146Y54933577D01*
X-4364266Y54933645D01*
X-4364832Y54934209D01*
X-4364835Y54934214D01*
X-4364956Y54934335D01*
X-4364987Y54934364D01*
X-4593905Y55163282D01*
X-4593925Y55163304D01*
X-4685368Y55254747D01*
X-4741237Y55292077D01*
X-4747536Y55296286D01*
X-4787817Y55323202D01*
X-4868311Y55356543D01*
X-4872578Y55358311D01*
X-4872585Y55358314D01*
X-4901650Y55370353D01*
X-4911676Y55372347D01*
X-4962074Y55382372D01*
X-5022493Y55394390D01*
X-5022496Y55394390D01*
X-5022497Y55394390D01*
X-8603437Y55394390D01*
X-8670476Y55414075D01*
X-8691118Y55430709D01*
X-9478228Y56217819D01*
X-9511713Y56279142D01*
X-9506729Y56348834D01*
X-9464857Y56404767D01*
X-9399393Y56429184D01*
X-9396341Y56429294D01*
X-9393716Y56429500D01*
X-9393713Y56429500D01*
X-9183757Y56462754D01*
X-8981588Y56528443D01*
X-8792184Y56624949D01*
X-8734859Y56666598D01*
X-8620216Y56749890D01*
X-8620216Y56749891D01*
X-8620208Y56749896D01*
X-8481033Y56889072D01*
X-8419714Y56922554D01*
X-8350022Y56917570D01*
X-8294088Y56875699D01*
X-8287816Y56866485D01*
X-8192316Y56711655D01*
X-8068346Y56587685D01*
X-7919125Y56495644D01*
X-7919120Y56495642D01*
X-7752698Y56440495D01*
X-7752691Y56440494D01*
X-7649981Y56430001D01*
X-7250001Y56430001D01*
X-7250000Y56430002D01*
X-7250000Y57508591D01*
X-7164044Y57458963D01*
X-7055952Y57430000D01*
X-6944048Y57430000D01*
X-6835956Y57458963D01*
X-6750000Y57508591D01*
X-6750000Y56430001D01*
X-6350028Y56430001D01*
X-6350014Y56430002D01*
X-6247303Y56440495D01*
X-6080881Y56495642D01*
X-6080876Y56495644D01*
X-5931655Y56587685D01*
X-5807685Y56711655D01*
X-5715644Y56860876D01*
X-5715642Y56860881D01*
X-5660495Y57027303D01*
X-5660494Y57027310D01*
X-5650001Y57130014D01*
X-5650000Y57130027D01*
X-5650000Y57605000D01*
X-6653590Y57605000D01*
X-6603963Y57690956D01*
X-6575000Y57799048D01*
X-6575000Y57910952D01*
X-6603963Y58019044D01*
X-6653590Y58105000D01*
X-5650001Y58105000D01*
X-5650001Y58579972D01*
X-5650002Y58579987D01*
X-5660495Y58682698D01*
X-5715642Y58849120D01*
X-5715644Y58849125D01*
X-5807685Y58998346D01*
X-5931655Y59122316D01*
X-6080876Y59214357D01*
X-6080881Y59214359D01*
X-6247303Y59269506D01*
X-6247310Y59269507D01*
X-6350014Y59280000D01*
X-6750000Y59280000D01*
X-6750000Y58201410D01*
X-6835956Y58251037D01*
X-6944048Y58280000D01*
X-7055952Y58280000D01*
X-7164044Y58251037D01*
X-7250000Y58201410D01*
X-7250000Y59280000D01*
X-7649972Y59280000D01*
X-7649988Y59279999D01*
X-7752698Y59269506D01*
X-7919120Y59214359D01*
X-7919125Y59214357D01*
X-8068346Y59122316D01*
X-8192317Y58998345D01*
X-8192320Y58998341D01*
X-8287817Y58843516D01*
X-8339765Y58796791D01*
X-8408727Y58785570D01*
X-8472809Y58813413D01*
X-8481036Y58820932D01*
X-8620214Y58960110D01*
X-8792180Y59085049D01*
X-8981586Y59181556D01*
X-8981587Y59181557D01*
X-8981588Y59181557D01*
X-9183757Y59247246D01*
X-9183759Y59247247D01*
X-9183760Y59247247D01*
X-9345043Y59272792D01*
X-9393713Y59280500D01*
X-9606287Y59280500D01*
X-9654958Y59272792D01*
X-9816240Y59247247D01*
X-10018415Y59181556D01*
X-10207821Y59085049D01*
X-10379787Y58960110D01*
X-10530106Y58809791D01*
X-10530110Y58809786D01*
X-10649682Y58645207D01*
X-10705011Y58602541D01*
X-10774625Y58596562D01*
X-10836420Y58629167D01*
X-10850318Y58645207D01*
X-10969891Y58809786D01*
X-10969895Y58809791D01*
X-11120214Y58960110D01*
X-11292180Y59085049D01*
X-11481586Y59181556D01*
X-11481587Y59181557D01*
X-11481588Y59181557D01*
X-11683757Y59247246D01*
X-11683759Y59247247D01*
X-11683760Y59247247D01*
X-11845043Y59272792D01*
X-11893713Y59280500D01*
X-12106287Y59280500D01*
X-12154958Y59272792D01*
X-12316240Y59247247D01*
X-12518415Y59181556D01*
X-12707821Y59085049D01*
X-12879787Y58960110D01*
X-13030110Y58809787D01*
X-13155049Y58637821D01*
X-13251556Y58448415D01*
X-13317247Y58246240D01*
X-13350500Y58036287D01*
X-13350500Y57673714D01*
X-13321468Y57490412D01*
X-13330423Y57421118D01*
X-13356260Y57383333D01*
X-15077771Y55661819D01*
X-15139094Y55628334D01*
X-15165452Y55625500D01*
X-19834547Y55625500D01*
X-19901586Y55645185D01*
X-19922228Y55661819D01*
X-20478228Y56217819D01*
X-20511713Y56279142D01*
X-20506729Y56348834D01*
X-20464857Y56404767D01*
X-20399393Y56429184D01*
X-20396341Y56429294D01*
X-20393716Y56429500D01*
X-20393713Y56429500D01*
X-20183757Y56462754D01*
X-19981588Y56528443D01*
X-19792184Y56624949D01*
X-19734859Y56666598D01*
X-19620216Y56749890D01*
X-19620216Y56749891D01*
X-19620208Y56749896D01*
X-19481033Y56889072D01*
X-19419714Y56922554D01*
X-19350022Y56917570D01*
X-19294088Y56875699D01*
X-19287816Y56866485D01*
X-19192316Y56711655D01*
X-19068346Y56587685D01*
X-18919125Y56495644D01*
X-18919120Y56495642D01*
X-18752698Y56440495D01*
X-18752691Y56440494D01*
X-18649981Y56430001D01*
X-18250001Y56430001D01*
X-18250000Y56430002D01*
X-18250000Y57508591D01*
X-18164044Y57458963D01*
X-18055952Y57430000D01*
X-17944048Y57430000D01*
X-17835956Y57458963D01*
X-17750000Y57508591D01*
X-17750000Y56430001D01*
X-17350028Y56430001D01*
X-17350014Y56430002D01*
X-17247303Y56440495D01*
X-17080881Y56495642D01*
X-17080876Y56495644D01*
X-16931655Y56587685D01*
X-16807685Y56711655D01*
X-16715644Y56860876D01*
X-16715642Y56860881D01*
X-16660495Y57027303D01*
X-16660494Y57027310D01*
X-16650001Y57130014D01*
X-16650000Y57130027D01*
X-16650000Y57605000D01*
X-17653590Y57605000D01*
X-17603963Y57690956D01*
X-17575000Y57799048D01*
X-17575000Y57910952D01*
X-17603963Y58019044D01*
X-17653590Y58105000D01*
X-16650001Y58105000D01*
X-16650001Y58579972D01*
X-16650002Y58579987D01*
X-16660495Y58682698D01*
X-16715642Y58849120D01*
X-16715644Y58849125D01*
X-16807685Y58998346D01*
X-16931655Y59122316D01*
X-17080876Y59214357D01*
X-17080881Y59214359D01*
X-17247303Y59269506D01*
X-17247310Y59269507D01*
X-17350014Y59280000D01*
X-17750000Y59280000D01*
X-17750000Y58201410D01*
X-17835956Y58251037D01*
X-17944048Y58280000D01*
X-18055952Y58280000D01*
X-18164044Y58251037D01*
X-18250000Y58201410D01*
X-18250000Y59280000D01*
X-18649972Y59280000D01*
X-18649988Y59279999D01*
X-18752698Y59269506D01*
X-18919120Y59214359D01*
X-18919125Y59214357D01*
X-19068346Y59122316D01*
X-19192317Y58998345D01*
X-19192320Y58998341D01*
X-19287817Y58843516D01*
X-19339765Y58796791D01*
X-19408727Y58785570D01*
X-19472809Y58813413D01*
X-19481036Y58820932D01*
X-19620214Y58960110D01*
X-19792180Y59085049D01*
X-19981586Y59181556D01*
X-19981587Y59181557D01*
X-19981588Y59181557D01*
X-20183757Y59247246D01*
X-20183759Y59247247D01*
X-20183760Y59247247D01*
X-20345043Y59272792D01*
X-20393713Y59280500D01*
X-20606287Y59280500D01*
X-20654958Y59272792D01*
X-20816240Y59247247D01*
X-21018415Y59181556D01*
X-21207821Y59085049D01*
X-21379787Y58960110D01*
X-21530106Y58809791D01*
X-21530110Y58809786D01*
X-21649682Y58645207D01*
X-21705011Y58602541D01*
X-21774625Y58596562D01*
X-21836420Y58629167D01*
X-21850318Y58645207D01*
X-21969891Y58809786D01*
X-21969895Y58809791D01*
X-22120214Y58960110D01*
X-22292180Y59085049D01*
X-22481586Y59181556D01*
X-22481587Y59181557D01*
X-22481588Y59181557D01*
X-22683757Y59247246D01*
X-22683759Y59247247D01*
X-22683760Y59247247D01*
X-22845043Y59272792D01*
X-22893713Y59280500D01*
X-23106287Y59280500D01*
X-23154958Y59272792D01*
X-23316240Y59247247D01*
X-23518415Y59181556D01*
X-23707821Y59085049D01*
X-23879787Y58960110D01*
X-24030110Y58809787D01*
X-24155049Y58637821D01*
X-24251556Y58448415D01*
X-24317247Y58246240D01*
X-24350500Y58036287D01*
X-24350500Y57673713D01*
X-24317246Y57463757D01*
X-24291115Y57383333D01*
X-24251556Y57261586D01*
X-24155049Y57072180D01*
X-24030110Y56900214D01*
X-23879787Y56749891D01*
X-23707821Y56624952D01*
X-23707819Y56624951D01*
X-23707816Y56624949D01*
X-23518412Y56528443D01*
X-23316243Y56462754D01*
X-23106287Y56429500D01*
X-23106286Y56429500D01*
X-22893714Y56429500D01*
X-22893713Y56429500D01*
X-22683757Y56462754D01*
X-22611553Y56486216D01*
X-22541715Y56488211D01*
X-22485556Y56455965D01*
X-20543737Y54514145D01*
X-20543733Y54514142D01*
X-20441290Y54445691D01*
X-20441289Y54445691D01*
X-20441285Y54445688D01*
X-20374604Y54418069D01*
X-20374602Y54418067D01*
X-20344871Y54405753D01*
X-20327452Y54398537D01*
X-20206606Y54374500D01*
X-20206604Y54374500D01*
X-14793393Y54374500D01*
X-14732971Y54386519D01*
X-14672548Y54398537D01*
X-14639208Y54412348D01*
X-14558714Y54445688D01*
X-14507491Y54479916D01*
X-14456267Y54514142D01*
X-14369142Y54601267D01*
X-14369142Y54601269D01*
X-14358934Y54611476D01*
X-14358933Y54611479D01*
X-12514444Y56455967D01*
X-12453123Y56489450D01*
X-12388448Y56486216D01*
X-12316243Y56462754D01*
X-12106287Y56429500D01*
X-12106286Y56429500D01*
X-11893714Y56429500D01*
X-11893713Y56429500D01*
X-11683757Y56462754D01*
X-11611553Y56486216D01*
X-11541714Y56488210D01*
X-11485555Y56455965D01*
X-9312627Y54283035D01*
X-9312623Y54283032D01*
X-9272172Y54256003D01*
X-9227367Y54202391D01*
X-9218660Y54133066D01*
X-9248815Y54070038D01*
X-9253382Y54065220D01*
X-9957781Y53360819D01*
X-10019104Y53327334D01*
X-10045462Y53324500D01*
X-10862611Y53324500D01*
X-10914442Y53314190D01*
X-10923029Y53312482D01*
X-10966257Y53303884D01*
X-10983454Y53300463D01*
X-11097284Y53253313D01*
X-11097293Y53253308D01*
X-11199732Y53184860D01*
X-11237040Y53147551D01*
X-11286858Y53097733D01*
X-11788575Y52596016D01*
X-11849898Y52562531D01*
X-11919590Y52567515D01*
X-11963937Y52596016D01*
X-11989708Y52621787D01*
X-11989712Y52621790D01*
X-12120815Y52709391D01*
X-12120828Y52709398D01*
X-12266499Y52769736D01*
X-12266511Y52769739D01*
X-12421155Y52800500D01*
X-12421158Y52800500D01*
X-12578842Y52800500D01*
X-12578845Y52800500D01*
X-12733490Y52769739D01*
X-12733502Y52769736D01*
X-12879173Y52709398D01*
X-12879186Y52709391D01*
X-13010289Y52621790D01*
X-13010293Y52621787D01*
X-13121787Y52510293D01*
X-13121790Y52510289D01*
X-13209391Y52379186D01*
X-13209398Y52379173D01*
X-13269736Y52233502D01*
X-13269739Y52233490D01*
X-13300500Y52078847D01*
X-13300500Y52020350D01*
X-13320185Y51953311D01*
X-13372989Y51907556D01*
X-13377047Y51905789D01*
X-13509039Y51851117D01*
X-13631867Y51756867D01*
X-13726118Y51634037D01*
X-13785364Y51491003D01*
X-13785365Y51491000D01*
X-13786377Y51483311D01*
X-13814646Y51419415D01*
X-13872972Y51380946D01*
X-13909316Y51375500D01*
X-17957650Y51375500D01*
X-18024689Y51395185D01*
X-18026541Y51396398D01*
X-18120816Y51459391D01*
X-18120828Y51459398D01*
X-18266499Y51519736D01*
X-18266511Y51519739D01*
X-18421155Y51550500D01*
X-18421158Y51550500D01*
X-18578842Y51550500D01*
X-18578845Y51550500D01*
X-18733490Y51519739D01*
X-18733502Y51519736D01*
X-18879173Y51459398D01*
X-18879185Y51459391D01*
X-18973459Y51396398D01*
X-19040136Y51375520D01*
X-19042350Y51375500D01*
X-26439548Y51375500D01*
X-26506587Y51395185D01*
X-26527229Y51411819D01*
X-30682181Y55566771D01*
X-30696885Y55593699D01*
X-30713477Y55619517D01*
X-30714369Y55625718D01*
X-30715666Y55628094D01*
X-30718500Y55654452D01*
X-30718500Y55743234D01*
X-30698815Y55810273D01*
X-30646011Y55856028D01*
X-30576853Y55865972D01*
X-30538204Y55853718D01*
X-30498417Y55833445D01*
X-30498415Y55833445D01*
X-30498412Y55833443D01*
X-30296243Y55767754D01*
X-30086287Y55734500D01*
X-30086286Y55734500D01*
X-29873714Y55734500D01*
X-29873713Y55734500D01*
X-29663757Y55767754D01*
X-29461588Y55833443D01*
X-29272184Y55929949D01*
X-29241499Y55952243D01*
X-29100214Y56054891D01*
X-29100212Y56054894D01*
X-29100208Y56054896D01*
X-28949896Y56205208D01*
X-28949894Y56205212D01*
X-28949891Y56205214D01*
X-28824952Y56377180D01*
X-28824953Y56377180D01*
X-28824949Y56377184D01*
X-28820486Y56385946D01*
X-28772512Y56436741D01*
X-28704692Y56453537D01*
X-28638556Y56431001D01*
X-28599514Y56385944D01*
X-28595049Y56377180D01*
X-28470110Y56205214D01*
X-28319787Y56054891D01*
X-28147821Y55929952D01*
X-28147819Y55929951D01*
X-28147816Y55929949D01*
X-27958412Y55833443D01*
X-27756243Y55767754D01*
X-27546287Y55734500D01*
X-27546286Y55734500D01*
X-27333714Y55734500D01*
X-27333713Y55734500D01*
X-27123757Y55767754D01*
X-26921588Y55833443D01*
X-26732184Y55929949D01*
X-26701499Y55952243D01*
X-26560214Y56054891D01*
X-26560212Y56054894D01*
X-26560208Y56054896D01*
X-26409896Y56205208D01*
X-26409894Y56205212D01*
X-26409891Y56205214D01*
X-26284952Y56377180D01*
X-26284953Y56377180D01*
X-26284949Y56377184D01*
X-26188443Y56566588D01*
X-26122754Y56768757D01*
X-26089500Y56978713D01*
X-26089500Y57191287D01*
X-26122754Y57401243D01*
X-26188443Y57603412D01*
X-26284949Y57792816D01*
X-26284951Y57792819D01*
X-26284952Y57792821D01*
X-26409891Y57964787D01*
X-26560214Y58115110D01*
X-26732180Y58240049D01*
X-26732885Y58240409D01*
X-26740946Y58244515D01*
X-26791741Y58292488D01*
X-26808537Y58360308D01*
X-26786001Y58426444D01*
X-26740946Y58465485D01*
X-26732184Y58469949D01*
X-26645862Y58532665D01*
X-26560214Y58594891D01*
X-26560212Y58594894D01*
X-26560208Y58594896D01*
X-26409896Y58745208D01*
X-26409894Y58745212D01*
X-26409891Y58745214D01*
X-26284952Y58917180D01*
X-26284950Y58917183D01*
X-26284949Y58917184D01*
X-26188443Y59106588D01*
X-26122754Y59308757D01*
X-26089500Y59518713D01*
X-26089500Y59731287D01*
X-26122754Y59941243D01*
X-26188443Y60143412D01*
X-26284949Y60332816D01*
X-26284951Y60332819D01*
X-26284952Y60332821D01*
X-26409891Y60504787D01*
X-26560214Y60655110D01*
X-26732180Y60780049D01*
X-26921586Y60876556D01*
X-26921587Y60876557D01*
X-26921588Y60876557D01*
X-27123620Y60942202D01*
X-27181295Y60981639D01*
X-27208493Y61045997D01*
X-27196578Y61114844D01*
X-27149334Y61166319D01*
X-27108410Y61181250D01*
X-27108497Y61181616D01*
X-27105305Y61182383D01*
X-27104693Y61182606D01*
X-27103757Y61182754D01*
X-26901588Y61248443D01*
X-26712184Y61344949D01*
X-26625529Y61407907D01*
X-26540214Y61469891D01*
X-26540212Y61469894D01*
X-26540208Y61469896D01*
X-26389896Y61620208D01*
X-26389894Y61620212D01*
X-26389891Y61620214D01*
X-26264952Y61792180D01*
X-26264953Y61792180D01*
X-26264949Y61792184D01*
X-26168443Y61981588D01*
X-26102754Y62183757D01*
X-26069500Y62393713D01*
X-26069500Y62606287D01*
X-26102754Y62816243D01*
X-26168443Y63018412D01*
X-26264949Y63207816D01*
X-26264951Y63207819D01*
X-26264952Y63207821D01*
X-26389891Y63379787D01*
X-26540214Y63530110D01*
X-26712180Y63655049D01*
X-26901586Y63751556D01*
X-26901587Y63751557D01*
X-26901588Y63751557D01*
X-27103757Y63817246D01*
X-27103759Y63817247D01*
X-27103760Y63817247D01*
X-27265043Y63842792D01*
X-27313713Y63850500D01*
X-27526287Y63850500D01*
X-27574958Y63842792D01*
X-27736240Y63817247D01*
X-27938415Y63751556D01*
X-28127821Y63655049D01*
X-28299787Y63530110D01*
X-28450110Y63379787D01*
X-28575051Y63207818D01*
X-28579516Y63199054D01*
X-28627491Y63148258D01*
X-28695312Y63131464D01*
X-28761447Y63154002D01*
X-28800484Y63199054D01*
X-28804950Y63207818D01*
X-28929891Y63379787D01*
X-29080214Y63530110D01*
X-29252180Y63655049D01*
X-29441586Y63751556D01*
X-29441587Y63751557D01*
X-29441588Y63751557D01*
X-29643757Y63817246D01*
X-29643759Y63817247D01*
X-29643760Y63817247D01*
X-29805043Y63842792D01*
X-29853713Y63850500D01*
X-30066287Y63850500D01*
X-30114958Y63842792D01*
X-30276240Y63817247D01*
X-30478415Y63751556D01*
X-30667821Y63655049D01*
X-30839787Y63530110D01*
X-30990110Y63379787D01*
X-31115051Y63207818D01*
X-31119516Y63199054D01*
X-31167491Y63148258D01*
X-31235312Y63131464D01*
X-31301447Y63154002D01*
X-31340484Y63199054D01*
X-31344950Y63207818D01*
X-31469891Y63379787D01*
X-31620214Y63530110D01*
X-31792180Y63655049D01*
X-31981586Y63751556D01*
X-31981587Y63751557D01*
X-31981588Y63751557D01*
X-32183757Y63817246D01*
X-32183759Y63817247D01*
X-32183760Y63817247D01*
X-32345043Y63842792D01*
X-32393713Y63850500D01*
X-32606287Y63850500D01*
X-32654958Y63842792D01*
X-32816240Y63817247D01*
X-33018415Y63751556D01*
X-33207821Y63655049D01*
X-33379787Y63530110D01*
X-33530110Y63379787D01*
X-33655051Y63207818D01*
X-33659516Y63199054D01*
X-33707491Y63148258D01*
X-33775312Y63131464D01*
X-33841447Y63154002D01*
X-33880484Y63199054D01*
X-33884950Y63207818D01*
X-34009891Y63379787D01*
X-34160214Y63530110D01*
X-34332180Y63655049D01*
X-34521586Y63751556D01*
X-34521587Y63751557D01*
X-34521588Y63751557D01*
X-34723757Y63817246D01*
X-34723759Y63817247D01*
X-34723760Y63817247D01*
X-34885043Y63842792D01*
X-34933713Y63850500D01*
X-35146287Y63850500D01*
X-35194958Y63842792D01*
X-35356240Y63817247D01*
X-35558415Y63751556D01*
X-35747821Y63655049D01*
X-35919787Y63530110D01*
X-36070110Y63379787D01*
X-36195051Y63207818D01*
X-36199516Y63199054D01*
X-36247491Y63148258D01*
X-36315312Y63131464D01*
X-36381447Y63154002D01*
X-36420484Y63199054D01*
X-36424950Y63207818D01*
X-36549891Y63379787D01*
X-36700214Y63530110D01*
X-36872180Y63655049D01*
X-37061586Y63751556D01*
X-37061587Y63751557D01*
X-37061588Y63751557D01*
X-37263757Y63817246D01*
X-37263759Y63817247D01*
X-37263760Y63817247D01*
X-37425043Y63842792D01*
X-37473713Y63850500D01*
X-37686287Y63850500D01*
X-37734958Y63842792D01*
X-37896240Y63817247D01*
X-38098415Y63751556D01*
X-38287821Y63655049D01*
X-38459785Y63530111D01*
X-38573715Y63416181D01*
X-38635038Y63382697D01*
X-38704730Y63387681D01*
X-38760663Y63429553D01*
X-38777578Y63460530D01*
X-38826646Y63592087D01*
X-38826650Y63592094D01*
X-38912810Y63707188D01*
X-38912813Y63707191D01*
X-39027907Y63793351D01*
X-39027914Y63793355D01*
X-39162621Y63843597D01*
X-39162628Y63843599D01*
X-39222156Y63850000D01*
X-39870000Y63850000D01*
X-39870000Y62933012D01*
X-39927007Y62965925D01*
X-40054174Y63000000D01*
X-40185826Y63000000D01*
X-40312993Y62965925D01*
X-40370000Y62933012D01*
X-40370000Y63850000D01*
X-40465848Y63850000D01*
X-40487094Y63856239D01*
X-40509181Y63857818D01*
X-40519965Y63865891D01*
X-40532887Y63869685D01*
X-40547386Y63886417D01*
X-40565115Y63899689D01*
X-40569823Y63912312D01*
X-40578642Y63922489D01*
X-40581794Y63944405D01*
X-40589532Y63965153D01*
X-40586670Y63978315D01*
X-40588586Y63991647D01*
X-40579388Y64011789D01*
X-40574681Y64033426D01*
X-40561410Y64051155D01*
X-40559561Y64055203D01*
X-40553544Y64061667D01*
X-40488225Y64126986D01*
X-40474877Y64138552D01*
X-40317779Y64256155D01*
X-40302911Y64265709D01*
X-40130702Y64359742D01*
X-40114615Y64367089D01*
X-39930752Y64435667D01*
X-39913801Y64440644D01*
X-39722062Y64482354D01*
X-39704564Y64484870D01*
X-39504418Y64499184D01*
X-39495572Y64499500D01*
X-39434108Y64499500D01*
X-3748463Y64499500D01*
X-3681424Y64479815D01*
G37*
%TD.AperFunction*%
%TA.AperFunction,Conductor*%
G36*
X-9669461Y48480315D02*
G01*
X-9623706Y48427511D01*
X-9612500Y48376000D01*
X-9612500Y47525001D01*
X-9513360Y47525001D01*
X-9513346Y47525002D01*
X-9412348Y47535320D01*
X-9248700Y47589547D01*
X-9248689Y47589552D01*
X-9101965Y47680053D01*
X-9088040Y47693979D01*
X-9026718Y47727467D01*
X-8957027Y47722486D01*
X-8929254Y47707893D01*
X-8920355Y47701665D01*
X-8898350Y47679660D01*
X-8818835Y47630615D01*
X-8815900Y47628561D01*
X-8796235Y47603970D01*
X-8775179Y47580562D01*
X-8774252Y47576482D01*
X-8772263Y47573995D01*
X-8771068Y47562469D01*
X-8763000Y47526970D01*
X-8763000Y47155895D01*
X-8763001Y47155895D01*
X-8756756Y47124500D01*
X-8750982Y47095471D01*
X-8744246Y47061606D01*
X-8738963Y47035049D01*
X-8691812Y46921214D01*
X-8668950Y46887000D01*
X-8662566Y46877445D01*
X-8662565Y46877444D01*
X-8623359Y46818768D01*
X-8623356Y46818764D01*
X-8531914Y46727322D01*
X-8531892Y46727302D01*
X-8262157Y46457567D01*
X-8233347Y46412381D01*
X-8230080Y46403425D01*
X-8221658Y46361088D01*
X-8165084Y46224506D01*
X-8164484Y46223608D01*
X-8161889Y46216495D01*
X-8159813Y46184184D01*
X-8156350Y46151983D01*
X-8157584Y46149519D01*
X-8157407Y46146769D01*
X-8173129Y46118466D01*
X-8187625Y46089504D01*
X-8189996Y46088098D01*
X-8191333Y46085689D01*
X-8219866Y46070376D01*
X-8247714Y46053852D01*
X-8251549Y46053371D01*
X-8252896Y46052647D01*
X-8255607Y46052861D01*
X-8278380Y46050000D01*
X-8400000Y46050000D01*
X-8400000Y45050000D01*
X-7150000Y45050000D01*
X-7150000Y45251097D01*
X-7152898Y45293825D01*
X-7198832Y45478524D01*
X-7283391Y45649023D01*
X-7283393Y45649026D01*
X-7305398Y45676401D01*
X-7332058Y45740985D01*
X-7319568Y45809729D01*
X-7271895Y45860808D01*
X-7256213Y45868646D01*
X-7144506Y45914916D01*
X-7021584Y45997048D01*
X-6805451Y46213181D01*
X-6744128Y46246666D01*
X-6717770Y46249500D01*
X-5744552Y46249500D01*
X-5715112Y46240856D01*
X-5685125Y46234332D01*
X-5680110Y46230578D01*
X-5677513Y46229815D01*
X-5656871Y46213181D01*
X-5649319Y46205629D01*
X-5615834Y46144306D01*
X-5613000Y46117948D01*
X-5613000Y43999730D01*
X-5632685Y43932691D01*
X-5649319Y43912049D01*
X-6274549Y43286819D01*
X-6335872Y43253334D01*
X-6362230Y43250500D01*
X-7157058Y43250500D01*
X-7224097Y43270185D01*
X-7268146Y43319406D01*
X-7282970Y43349296D01*
X-7402276Y43497720D01*
X-7414653Y43507669D01*
X-7471888Y43553676D01*
X-7511804Y43611015D01*
X-7514384Y43680837D01*
X-7478806Y43740970D01*
X-7471885Y43746967D01*
X-7402634Y43802633D01*
X-7402633Y43802634D01*
X-7283393Y43950975D01*
X-7283391Y43950978D01*
X-7198832Y44121477D01*
X-7152898Y44306176D01*
X-7150000Y44348904D01*
X-7150000Y44550000D01*
X-10150000Y44550000D01*
X-10150000Y44348904D01*
X-10147103Y44306176D01*
X-10101169Y44121477D01*
X-10016610Y43950978D01*
X-10016608Y43950975D01*
X-9897370Y43802636D01*
X-9828116Y43746969D01*
X-9788197Y43689625D01*
X-9785617Y43619803D01*
X-9821195Y43559671D01*
X-9828115Y43553674D01*
X-9885343Y43507672D01*
X-9897724Y43497720D01*
X-10017031Y43349296D01*
X-10017033Y43349293D01*
X-10101640Y43178698D01*
X-10147600Y42993893D01*
X-10150500Y42951121D01*
X-10150500Y42048878D01*
X-10150499Y42048875D01*
X-10147601Y42006114D01*
X-10147601Y42006113D01*
X-10101641Y41821306D01*
X-10025159Y41667095D01*
X-10013007Y41598290D01*
X-10039984Y41533838D01*
X-10097523Y41494202D01*
X-10136247Y41488000D01*
X-10526968Y41488000D01*
X-10594007Y41507685D01*
X-10632506Y41546903D01*
X-10679658Y41623347D01*
X-10679661Y41623351D01*
X-10801649Y41745339D01*
X-10801650Y41745340D01*
X-10892871Y41801605D01*
X-10948482Y41835907D01*
X-10948487Y41835909D01*
X-10949931Y41836388D01*
X-11112247Y41890174D01*
X-11112249Y41890175D01*
X-11213316Y41900500D01*
X-11750500Y41900500D01*
X-11817539Y41920185D01*
X-11863294Y41972989D01*
X-11874500Y42024500D01*
X-11874500Y43398862D01*
X-11854815Y43465901D01*
X-11838186Y43486539D01*
X-11703442Y43621282D01*
X-11591214Y43789244D01*
X-11513909Y43975873D01*
X-11474500Y44173997D01*
X-11474500Y44826003D01*
X-11513909Y45024127D01*
X-11591214Y45210756D01*
X-11591218Y45210763D01*
X-11618168Y45251097D01*
X-10150000Y45251097D01*
X-10150000Y45050000D01*
X-8900000Y45050000D01*
X-8900000Y46050000D01*
X-9351097Y46050000D01*
X-9393825Y46047103D01*
X-9578524Y46001169D01*
X-9749023Y45916610D01*
X-9749026Y45916608D01*
X-9897367Y45797368D01*
X-9897368Y45797367D01*
X-10016608Y45649026D01*
X-10016610Y45649023D01*
X-10101169Y45478524D01*
X-10147103Y45293825D01*
X-10150000Y45251097D01*
X-11618168Y45251097D01*
X-11703442Y45378719D01*
X-11838181Y45513458D01*
X-11871666Y45574781D01*
X-11874500Y45601139D01*
X-11874500Y46689548D01*
X-11854815Y46756587D01*
X-11838181Y46777229D01*
X-11365410Y47250000D01*
X-10866875Y47748536D01*
X-10805555Y47782018D01*
X-10735864Y47777034D01*
X-10691516Y47748533D01*
X-10623039Y47680056D01*
X-10623035Y47680053D01*
X-10476312Y47589552D01*
X-10476301Y47589547D01*
X-10312653Y47535320D01*
X-10211649Y47525001D01*
X-10112500Y47525002D01*
X-10112500Y48376000D01*
X-10092815Y48443039D01*
X-10040011Y48488794D01*
X-9988500Y48500000D01*
X-9736500Y48500000D01*
X-9669461Y48480315D01*
G37*
%TD.AperFunction*%
%TA.AperFunction,Conductor*%
G36*
X-13841774Y49604815D02*
G01*
X-13796019Y49552011D01*
X-13785874Y49516685D01*
X-13784881Y49509140D01*
X-13784878Y49509129D01*
X-13725684Y49366220D01*
X-13725681Y49366214D01*
X-13631511Y49243491D01*
X-13631510Y49243490D01*
X-13508787Y49149320D01*
X-13508781Y49149317D01*
X-13365872Y49090123D01*
X-13365867Y49090121D01*
X-13251012Y49075001D01*
X-12850001Y49075001D01*
X-12850000Y49075002D01*
X-12850000Y49450500D01*
X-12847450Y49459186D01*
X-12848738Y49468147D01*
X-12837760Y49492188D01*
X-12830315Y49517539D01*
X-12823475Y49523467D01*
X-12819713Y49531703D01*
X-12797479Y49545993D01*
X-12777511Y49563294D01*
X-12766997Y49565582D01*
X-12760935Y49569477D01*
X-12726000Y49574500D01*
X-12624000Y49574500D01*
X-12556961Y49554815D01*
X-12511206Y49502011D01*
X-12500000Y49450500D01*
X-12500000Y49075001D01*
X-12098987Y49075001D01*
X-11984141Y49090119D01*
X-11984129Y49090123D01*
X-11841220Y49149317D01*
X-11841218Y49149318D01*
X-11824989Y49161771D01*
X-11759821Y49186967D01*
X-11691376Y49172930D01*
X-11641385Y49124118D01*
X-11625500Y49063397D01*
X-11625500Y48810453D01*
X-11645185Y48743414D01*
X-11661819Y48722772D01*
X-12898731Y47485860D01*
X-12898733Y47485858D01*
X-12942296Y47442296D01*
X-12985858Y47398734D01*
X-13014749Y47355495D01*
X-13014750Y47355496D01*
X-13054311Y47296288D01*
X-13054315Y47296281D01*
X-13083010Y47227005D01*
X-13083013Y47226995D01*
X-13086360Y47218913D01*
X-13101463Y47182452D01*
X-13106746Y47155893D01*
X-13124647Y47065892D01*
X-13125316Y47062536D01*
X-13125319Y47062520D01*
X-13125500Y47061612D01*
X-13125500Y45753612D01*
X-13145185Y45686573D01*
X-13197989Y45640818D01*
X-13267147Y45630874D01*
X-13296953Y45639051D01*
X-13470873Y45711091D01*
X-13470881Y45711093D01*
X-13668993Y45750500D01*
X-13668997Y45750500D01*
X-13871003Y45750500D01*
X-13871008Y45750500D01*
X-14069120Y45711093D01*
X-14069132Y45711090D01*
X-14149802Y45677675D01*
X-14219271Y45670206D01*
X-14264658Y45689964D01*
X-14264886Y45689546D01*
X-14269553Y45692095D01*
X-14271568Y45692972D01*
X-14272669Y45693796D01*
X-14272670Y45693797D01*
X-14272672Y45693798D01*
X-14407518Y45744092D01*
X-14407517Y45744092D01*
X-14467117Y45750499D01*
X-14467119Y45750500D01*
X-14467127Y45750500D01*
X-14467135Y45750500D01*
X-15354548Y45750500D01*
X-15421587Y45770185D01*
X-15442229Y45786819D01*
X-18893229Y49237819D01*
X-18926714Y49299142D01*
X-18921730Y49368834D01*
X-18879858Y49424767D01*
X-18814394Y49449184D01*
X-18805548Y49449500D01*
X-17658797Y49449500D01*
X-17658797Y49449501D01*
X-17579998Y49465174D01*
X-17537953Y49473537D01*
X-17499478Y49489474D01*
X-17424119Y49520688D01*
X-17372896Y49554916D01*
X-17321672Y49589142D01*
X-17315104Y49595711D01*
X-17306402Y49601845D01*
X-17283003Y49609821D01*
X-17261309Y49621666D01*
X-17242230Y49623718D01*
X-17240268Y49624386D01*
X-17238980Y49624067D01*
X-17234951Y49624500D01*
X-13908813Y49624500D01*
X-13841774Y49604815D01*
G37*
%TD.AperFunction*%
%TA.AperFunction,Conductor*%
G36*
X-4618259Y49290020D02*
G01*
X-4573912Y49261519D01*
X-4524562Y49212169D01*
X-4491077Y49150846D01*
X-4496061Y49081154D01*
X-4524562Y49036807D01*
X-5445448Y48115922D01*
X-5445451Y48115919D01*
X-5494688Y48042229D01*
X-5527579Y47993004D01*
X-5527586Y47992991D01*
X-5575436Y47877470D01*
X-5605832Y47833861D01*
X-5614665Y47825698D01*
X-5623350Y47820340D01*
X-5658605Y47785086D01*
X-5660387Y47783438D01*
X-5689593Y47768952D01*
X-5718194Y47753334D01*
X-5721878Y47752938D01*
X-5722980Y47752391D01*
X-5724939Y47752609D01*
X-5744552Y47750500D01*
X-7064035Y47750500D01*
X-7131074Y47770185D01*
X-7176829Y47822989D01*
X-7186773Y47892147D01*
X-7169574Y47939597D01*
X-7164092Y47948484D01*
X-7109826Y48112247D01*
X-7099500Y48213323D01*
X-7099501Y48786676D01*
X-7109826Y48887753D01*
X-7122528Y48926084D01*
X-7134262Y48961496D01*
X-7136664Y49031324D01*
X-7100932Y49091366D01*
X-7038412Y49122559D01*
X-7016556Y49124500D01*
X-6282740Y49124500D01*
X-6217644Y49106039D01*
X-6138116Y49056986D01*
X-6138115Y49056986D01*
X-6138109Y49056982D01*
X-5974346Y49002716D01*
X-5873270Y48992390D01*
X-5274917Y48992391D01*
X-5274909Y48992392D01*
X-5274906Y48992392D01*
X-5219563Y48998046D01*
X-5173840Y49002716D01*
X-5010077Y49056982D01*
X-4863243Y49147550D01*
X-4749274Y49261519D01*
X-4687951Y49295004D01*
X-4618259Y49290020D01*
G37*
%TD.AperFunction*%
%TA.AperFunction,Conductor*%
G36*
X-28864730Y58863283D02*
G01*
X-28864730Y58863284D01*
X-28825378Y58917445D01*
X-28820768Y58926493D01*
X-28772795Y58977291D01*
X-28704975Y58994088D01*
X-28638839Y58971553D01*
X-28599796Y58926496D01*
X-28595051Y58917183D01*
X-28470110Y58745214D01*
X-28319787Y58594891D01*
X-28147818Y58469950D01*
X-28139054Y58465484D01*
X-28088258Y58417509D01*
X-28071464Y58349688D01*
X-28094002Y58283553D01*
X-28139054Y58244516D01*
X-28147818Y58240051D01*
X-28319787Y58115110D01*
X-28470110Y57964787D01*
X-28595051Y57792818D01*
X-28599516Y57784054D01*
X-28647491Y57733258D01*
X-28715312Y57716464D01*
X-28781447Y57739002D01*
X-28820484Y57784054D01*
X-28824950Y57792818D01*
X-28949891Y57964787D01*
X-29100214Y58115110D01*
X-29272183Y58240051D01*
X-29281496Y58244796D01*
X-29332293Y58292770D01*
X-29349088Y58360591D01*
X-29326551Y58426726D01*
X-29281493Y58465768D01*
X-29272445Y58470378D01*
X-29218284Y58509730D01*
X-29218283Y58509730D01*
X-29850592Y59142038D01*
X-29787007Y59159075D01*
X-29672993Y59224901D01*
X-29579901Y59317993D01*
X-29514075Y59432007D01*
X-29497038Y59495592D01*
X-28864730Y58863283D01*
G37*
%TD.AperFunction*%
%TA.AperFunction,Conductor*%
G36*
X-31158556Y61846001D02*
G01*
X-31119514Y61800944D01*
X-31115049Y61792180D01*
X-30990110Y61620214D01*
X-30839787Y61469891D01*
X-30667821Y61344952D01*
X-30667819Y61344951D01*
X-30667816Y61344949D01*
X-30478412Y61248443D01*
X-30276243Y61182754D01*
X-30276241Y61182754D01*
X-30275334Y61182459D01*
X-30217658Y61143021D01*
X-30190460Y61078663D01*
X-30202375Y61009816D01*
X-30249619Y60958341D01*
X-30291443Y60943080D01*
X-30291398Y60942893D01*
X-30293023Y60942504D01*
X-30294248Y60942056D01*
X-30296124Y60941759D01*
X-30296131Y60941758D01*
X-30498218Y60876096D01*
X-30687561Y60779620D01*
X-30741718Y60740273D01*
X-30741718Y60740272D01*
X-30109409Y60107963D01*
X-30172993Y60090925D01*
X-30287007Y60025099D01*
X-30380099Y59932007D01*
X-30445925Y59817993D01*
X-30462963Y59754409D01*
X-31095272Y60386718D01*
X-31095273Y60386718D01*
X-31134620Y60332560D01*
X-31134624Y60332554D01*
X-31139240Y60323495D01*
X-31187219Y60272703D01*
X-31255041Y60255913D01*
X-31321174Y60278457D01*
X-31360206Y60323507D01*
X-31364949Y60332816D01*
X-31364951Y60332819D01*
X-31364952Y60332821D01*
X-31489891Y60504787D01*
X-31640214Y60655110D01*
X-31812181Y60780050D01*
X-31826797Y60787497D01*
X-31877592Y60835473D01*
X-31894500Y60897981D01*
X-31894500Y61216830D01*
X-31874815Y61283869D01*
X-31826796Y61327314D01*
X-31792184Y61344949D01*
X-31620208Y61469896D01*
X-31469896Y61620208D01*
X-31469894Y61620212D01*
X-31469891Y61620214D01*
X-31344952Y61792180D01*
X-31344953Y61792180D01*
X-31344949Y61792184D01*
X-31340486Y61800946D01*
X-31292512Y61851741D01*
X-31224692Y61868537D01*
X-31158556Y61846001D01*
G37*
%TD.AperFunction*%
%TA.AperFunction,Conductor*%
G36*
X-28618556Y61846001D02*
G01*
X-28579514Y61800944D01*
X-28575049Y61792180D01*
X-28450110Y61620214D01*
X-28299787Y61469891D01*
X-28127821Y61344952D01*
X-28127819Y61344951D01*
X-28127816Y61344949D01*
X-27938412Y61248443D01*
X-27736380Y61182799D01*
X-27678707Y61143363D01*
X-27651508Y61079004D01*
X-27663423Y61010158D01*
X-27710667Y60958682D01*
X-27751591Y60943747D01*
X-27751503Y60943384D01*
X-27754661Y60942626D01*
X-27755285Y60942398D01*
X-27756241Y60942247D01*
X-27958415Y60876556D01*
X-28147821Y60780049D01*
X-28319787Y60655110D01*
X-28470110Y60504787D01*
X-28595051Y60332818D01*
X-28599798Y60323501D01*
X-28647773Y60272707D01*
X-28715595Y60255913D01*
X-28781729Y60278452D01*
X-28820766Y60323505D01*
X-28825374Y60332548D01*
X-28864730Y60386718D01*
X-28864731Y60386718D01*
X-29497038Y59754410D01*
X-29514075Y59817993D01*
X-29579901Y59932007D01*
X-29672993Y60025099D01*
X-29787007Y60090925D01*
X-29850591Y60107963D01*
X-29218284Y60740272D01*
X-29272450Y60779625D01*
X-29461783Y60876096D01*
X-29664705Y60942029D01*
X-29722381Y60981466D01*
X-29749579Y61045825D01*
X-29737664Y61114671D01*
X-29690420Y61166147D01*
X-29648459Y61181457D01*
X-29648497Y61181616D01*
X-29647105Y61181951D01*
X-29645781Y61182434D01*
X-29643757Y61182754D01*
X-29441588Y61248443D01*
X-29252184Y61344949D01*
X-29165529Y61407907D01*
X-29080214Y61469891D01*
X-29080212Y61469894D01*
X-29080208Y61469896D01*
X-28929896Y61620208D01*
X-28929894Y61620212D01*
X-28929891Y61620214D01*
X-28804952Y61792180D01*
X-28804953Y61792180D01*
X-28804949Y61792184D01*
X-28800486Y61800946D01*
X-28752512Y61851741D01*
X-28684692Y61868537D01*
X-28618556Y61846001D01*
G37*
%TD.AperFunction*%
%TD*%
M02*
