M48
; DRILL file {KiCad 9.0.2} date 2025-06-02T02:46:58+0900
; FORMAT={-:-/ absolute / inch / decimal}
; #@! TF.CreationDate,2025-06-02T02:46:58+09:00
; #@! TF.GenerationSoftware,Kicad,Pcbnew,9.0.2
; #@! TF.FileFunction,Plated,1,2,PTH
FMAT,2
INCH
; #@! TA.AperFunction,Plated,PTH,ViaDrill
T1C0.0118
; #@! TA.AperFunction,Plated,PTH,ComponentDrill
T2C0.0295
; #@! TA.AperFunction,Plated,PTH,ComponentDrill
T3C0.0315
; #@! TA.AperFunction,Plated,PTH,ComponentDrill
T4C0.0335
; #@! TA.AperFunction,Plated,PTH,ComponentDrill
T5C0.0394
; #@! TA.AperFunction,Plated,PTH,ComponentDrill
T6C0.0748
%
G90
G05
T1
X-0.7283Y1.998
X-0.6299Y1.5748
X-0.5315Y1.9094
X-0.5315Y1.8701
X-0.5315Y0.2559
X-0.5315Y0.2165
X-0.5315Y0.1772
X-0.5315Y0.1378
X-0.4921Y2.0472
X-0.4921Y1.9094
X-0.4921Y0.2559
X-0.4921Y0.2165
X-0.4921Y0.1772
X-0.4921Y0.1378
X-0.4724Y1.1614
X-0.4724Y1.122
X-0.4724Y1.0827
X-0.4724Y1.0433
X-0.4528Y0.2559
X-0.4528Y0.2165
X-0.4528Y0.1772
X-0.4528Y0.1378
X-0.4331Y1.8701
X-0.4331Y1.1614
X-0.4331Y1.122
X-0.4331Y1.0827
X-0.4331Y1.0433
X-0.4134Y0.2559
X-0.4134Y0.2165
X-0.4134Y0.1772
X-0.4134Y0.1378
X-0.3937Y1.7717
X-0.3937Y1.7323
X-0.3937Y1.6929
X-0.3937Y1.1614
X-0.3937Y1.122
X-0.3937Y1.0827
X-0.3937Y1.0433
X-0.374Y0.2559
X-0.374Y0.2165
X-0.374Y0.1772
X-0.374Y0.1378
X-0.3543Y1.1614
X-0.3543Y1.122
X-0.3543Y1.0827
X-0.3543Y1.0433
X-0.315Y2.0079
X-0.315Y1.1614
X-0.315Y1.122
X-0.315Y1.0827
X-0.315Y1.0433
X-0.2559Y2.0079
X-0.2362Y1.9094
T2
X-0.5921Y1.752
X-0.5421Y1.752
X-0.4921Y1.752
T3
X-0.2953Y1.8339
X-0.2953Y1.5339
T4
X-0.9055Y2.2778
X-0.8071Y2.2778
X-0.7087Y2.2778
X-0.4724Y2.2778
X-0.374Y2.2778
X-0.2756Y2.2778
T5
X-1.5795Y2.4606
X-1.4803Y2.3474
X-1.4803Y2.2474
X-1.4795Y2.4606
X-1.3803Y2.3474
X-1.3803Y2.2474
X-1.3795Y2.4606
X-1.2803Y2.3474
X-1.2803Y2.2474
X-1.2795Y2.4606
X-1.1803Y2.3474
X-1.1803Y2.2474
X-1.1795Y2.4606
X-1.0803Y2.3474
X-1.0803Y2.2474
X-1.0795Y2.4606
X-0.6693Y0.1378
X-0.5748Y0.9291
X-0.4331Y0.8819
X-0.2598Y0.8819
X-0.2362Y0.1378
T6
X-0.5512Y0.5315
X-0.3543Y0.5315
M30
